<?xml version="1.0" encoding="UTF-8" standalone="no"?>
<!-- Created with Inkscape (http://www.inkscape.org/) -->
<svg
   xmlns:dc="http://purl.org/dc/elements/1.1/"
   xmlns:cc="http://creativecommons.org/ns#"
   xmlns:rdf="http://www.w3.org/1999/02/22-rdf-syntax-ns#"
   xmlns:svg="http://www.w3.org/2000/svg"
   xmlns="http://www.w3.org/2000/svg"
   xmlns:sodipodi="http://sodipodi.sourceforge.net/DTD/sodipodi-0.dtd"
   xmlns:inkscape="http://www.inkscape.org/namespaces/inkscape"
   width="329.16977"
   height="261.72662"
   id="svg2"
   sodipodi:version="0.32"
   inkscape:version="0.46dev+devel"
   version="1.0"
   sodipodi:docbase="C:\Documents and Settings\ryan\Desktop"
   sodipodi:docname="ryanlerch_fabia_-_back_view_ok.svg"
   inkscape:output_extension="org.inkscape.output.svg.inkscape">
  <defs
     id="defs4" />
  <sodipodi:namedview
     id="base"
     pagecolor="#ffffff"
     bordercolor="#666666"
     borderopacity="1.0"
     gridtolerance="10000"
     guidetolerance="10"
     objecttolerance="10"
     inkscape:pageopacity="0.0"
     inkscape:pageshadow="2"
     inkscape:zoom="0.98994949"
     inkscape:cx="375"
     inkscape:cy="214.47861"
     inkscape:document-units="px"
     inkscape:current-layer="layer1"
     inkscape:window-width="1280"
     inkscape:window-height="778"
     inkscape:window-x="0"
     inkscape:window-y="0"
     showgrid="false" />
  <metadata
     id="metadata7">
    <rdf:RDF>
      <cc:Work
         rdf:about="">
        <dc:format>image/svg+xml</dc:format>
        <dc:type
           rdf:resource="http://purl.org/dc/dcmitype/StillImage" />
      </cc:Work>
    </rdf:RDF>
  </metadata>
  <g
     inkscape:label="Layer 1"
     inkscape:groupmode="layer"
     id="layer1"
     transform="translate(66.783552,5.2536926)">
    <g
       id="g2104"
       transform="matrix(0.951509,0,0,0.951509,-535.7295,-387.2404)">
      <path
         style="fill:#e6e6e6;fill-opacity:1"
         d="M 527.06049,673.73346 C 523.18891,672.59031 520.15734,668.42847 526.06294,668.56098 C 523.9407,654.48545 524.99012,640.00681 524.62594,625.76804 C 524.64688,610.20866 524.77813,594.57014 521.95114,579.21471 C 520.90459,559.88677 520.74741,540.44794 521.94637,521.12657 C 522.48723,513.41554 525.59671,506.27122 527.62805,498.91345 C 516.87099,496.91267 504.79956,502.0499 494.90899,495.87868 C 489.92221,489.54948 494.47465,476.58448 503.15437,475.70245 C 511.63308,475.22043 521.96935,471.50333 529.30179,476.74144 C 530.19244,480.7052 535.22923,492.12976 537.00505,482.61418 C 545.49192,457.42303 556.56776,432.56419 573.35233,411.74707 C 579.82683,405.01352 590.50494,407.1475 598.92457,405.33739 C 629.0606,402.05023 659.38772,400.78801 689.68988,401.78742 C 713.60255,402.40868 737.53498,403.79562 761.25929,406.86032 C 770.90544,410.99083 775.24252,421.67354 781.02896,429.7374 C 791.45549,445.90889 798.29834,463.94992 804.86552,481.92753 C 807.00641,489.73367 811.21883,483.42312 809.72902,478.4984 C 812.54613,468.42527 825.13052,472.87024 832.3109,474.75945 C 840.19692,477.68448 839.5026,489.70376 836.78897,496.00608 C 830.29759,500.28523 820.99271,497.33481 814.78291,497.97505 C 818.31482,510.35339 822.69423,522.78982 821.94625,535.86657 C 821.81628,553.78001 823.03105,571.89232 819.46781,589.56705 C 817.53891,615.3449 819.76898,641.28555 817.73523,667.04492 C 815.33858,670.88234 831.08526,667.93868 821.93008,672.81954 C 818.57321,674.65402 815.12181,676.13883 811.21802,675.53569 C 718.3346,675.86325 625.45117,676.19081 532.56775,676.51837 C 530.73199,675.59007 528.89624,674.66176 527.06049,673.73346 z M 764.42499,669.35602 C 769.67103,667.82066 783.67831,672.42292 780.43048,663.09471 C 779.7191,651.75041 779.78262,640.37824 779.54266,629.01837 C 707.57113,629.01837 635.59959,629.01837 563.62805,629.01837 C 563.32782,641.45616 564.4264,654.02885 562.5507,666.35153 C 559.25943,670.47404 562.34088,670.36925 566.13251,670.04648 C 632.22946,669.92888 698.33439,670.35878 764.42499,669.35602 z M 554.36707,634.26837 C 553.82271,631.55538 553.82274,648.48142 554.36704,645.76839 C 554.57048,641.93958 554.57046,638.09716 554.36707,634.26837 z M 789.5166,633.51837 C 788.259,634.79758 788.88732,654.92469 789.57156,643.51839 C 789.81164,640.19923 790.01998,636.82358 789.5166,633.51837 z M 535.25305,641.22064 C 534.61747,637.00806 542.11297,639.33851 545.62805,640.03385 C 548.16521,642.0332 557.28536,636.85128 549.06735,635.82151 C 543.78753,636.87304 537.80521,635.09037 533.79374,636.8336 C 532.26723,637.45205 535.44311,644.38732 535.25305,641.22064 z M 810.62805,636.51837 C 808.47673,631.6459 808.47682,641.39094 810.62805,636.51837 z M 804.19672,635.96143 C 813.64457,634.8183 791.54215,632.7813 792.12024,636.65387 C 796.09234,637.03621 800.34755,637.11074 804.19672,635.96143 z M 534.29034,624.76837 C 532.64919,625.58681 535.17452,629.8938 534.29034,624.76837 z M 553.92712,622.26837 C 553.15328,620.14568 563.82602,627.22356 560.12562,621.28295 C 563.0191,619.2856 564.69945,617.39993 569.66857,618.15431 C 574.57611,612.89746 584.32339,616.35849 591.13833,615.00675 C 595.67204,614.9997 605.11061,614.19343 595.09292,614.19711 C 575.12664,613.66174 555.10365,614.66188 535.17362,613.247 C 540.59056,611.8477 550.98759,612.52583 558.39755,612.18986 C 633.06226,611.90856 707.72838,611.76278 782.39118,611.07053 C 790.53797,611.87528 800.34824,609.21679 807.36397,613.13459 C 814.65733,611.7235 813.36175,599.37096 815.51529,593.2538 C 817.00627,583.15718 819.49798,573.0101 819.16556,562.77294 C 818.69741,558.86203 810.89578,548.51276 811.48023,558.06573 C 807.39456,566.12501 795.76892,564.39328 788.16684,566.69196 C 761.42487,569.46966 734.45744,568.48664 707.61283,569.07799 C 659.51659,569.18172 611.39778,570.37298 563.31641,568.82423 C 552.64669,568.28223 541.41522,567.24637 531.89493,562.1543 C 530.43101,557.62096 528.14219,550.86374 525.48234,559.30401 C 521.7334,567.27047 524.94638,576.38227 525.59999,584.71659 C 527.78149,596.11636 529.21556,608.1968 535.29364,618.30936 C 538.68026,623.95987 548.23949,621.50315 549.01663,620.65121 C 551.01173,619.77926 554.38934,627.33138 553.92712,622.26837 z M 556.62805,621.01837 C 558.99425,614.08725 558.51762,627.70604 556.62805,621.01837 z M 542.08691,619.95184 C 540.9798,615.36377 546.8958,623.91861 542.08693,619.95186 L 542.08691,619.95184 z M 554.89886,616.41425 C 558.9051,615.48766 556.88798,618.2459 554.89886,616.41425 z M 564.62805,616.63501 C 567.78242,613.77126 571.81339,618.07349 565.37976,616.90578 L 564.62805,616.63502 L 564.62805,616.63501 z M 527.63892,580.62927 C 522.67937,570.86717 535.61194,572.65186 541.47287,572.54464 C 626.04998,571.30215 710.64402,570.87021 795.22907,571.34129 C 801.5821,572.78086 816.18477,567.8622 815.34916,577.968 C 809.24665,582.49398 797.36096,579.0152 789.14644,580.41111 C 704.85839,581.2913 620.55761,581.78712 536.26725,581.01256 C 533.39423,580.90504 530.49241,581.007 527.63892,580.62927 z M 568.37805,623.32904 C 561.68149,622.58537 565.28509,624.63197 568.37805,623.32904 z M 573.81555,617.33527 C 569.36848,616.60099 574.38057,619.15823 573.81555,617.33528 L 573.81555,617.33527 z M 605.87805,614.35614 C 600.75254,613.47193 605.0598,615.99717 605.87805,614.35614 z M 624.81555,614.33527 C 620.36848,613.60099 625.38057,616.15823 624.81555,614.33528 L 624.81555,614.33527 z M 743.62805,566.02124 C 759.76477,565.46839 776.01138,565.72942 792.04891,563.88946 C 797.49306,561.5958 809.53552,563.19315 809.34947,555.21025 C 801.45665,559.79811 791.72215,559.64929 782.85082,561.01474 C 747.11259,563.12438 711.27463,562.67423 675.4905,563.38909 C 634.1339,563.56163 592.68992,564.74993 551.40736,561.74455 C 545.22912,562.00722 536.94301,558.56086 532.62805,558.2735 C 537.40028,565.41172 549.07691,564.68505 557.0394,566.08268 C 617.02163,567.3278 677.03337,566.81461 737.02132,566.14149 C 739.22362,566.10477 741.42589,566.0651 743.62805,566.02124 z M 766.96259,558.44348 C 772.2092,551.89003 771.70496,542.5347 773.11744,534.51723 C 774.61955,524.8855 776.5471,515.1705 776.18302,505.3825 C 769.08467,502.69013 759.75658,504.09605 751.78641,503.30495 C 744.72713,503.92444 731.6699,499.2747 732.87391,510.77855 C 731.12043,519.55713 729.60127,529.0016 724.0437,536.28345 C 715.68052,538.79733 706.12881,537.13181 697.30578,537.82487 C 671.19412,537.91722 645.0529,538.4272 618.96027,537.4096 C 613.10022,531.88786 611.87685,523.08733 609.64856,515.63141 C 607.32712,512.4169 610.28195,503.5078 605.08238,504.01974 C 591.86698,503.9688 578.66942,504.76771 565.47095,505.33664 C 565.86668,516.76853 566.7407,528.18506 569.42647,539.33646 C 570.66441,546.39683 571.4553,553.63471 574.12805,560.33899 C 638.18795,559.78565 702.25772,559.81876 766.30723,558.50796 L 766.96258,558.44351 L 766.96259,558.44348 z M 547.12805,552.26904 C 550.32801,546.97783 539.57201,541.25929 543.12178,548.99945 C 540.12287,552.69424 546.07057,553.58793 543.15617,557.77665 C 547.77723,559.50157 547.07174,555.22989 547.12805,552.26904 z M 818.10474,524.69312 C 816.14378,513.04706 814.05323,500.13433 805.03112,491.70983 C 795.55668,490.83472 794.5384,481.0787 791.64669,473.8969 C 785.30731,456.78497 778.33258,439.90983 769.9005,423.71705 C 768.33486,419.29401 766.15877,408.60533 760.55045,411.10583 C 762.9604,422.94292 770.04188,433.23503 773.91681,444.62539 C 779.49409,457.80608 783.043,471.73188 787.94672,485.12688 C 794.6973,495.45554 808.17956,501.65593 809.90643,515.00582 C 812.16746,526.61591 811.32585,538.62459 813.66944,550.1973 C 815.69838,552.75547 820.33424,561.03666 819.16972,552.98449 C 819.61742,543.54728 819.66331,534.04043 818.10474,524.69312 z M 530.03204,539.01288 C 531.09731,528.34278 530.56508,516.93308 535.21355,507.04627 C 542.36707,496.99097 555.33677,490.82432 557.64382,477.70004 C 562.59498,456.56577 571.42428,436.67783 580.32746,416.98682 C 582.54533,412.75987 582.45097,407.82391 577.62805,412.0184 C 570.90969,417.23186 571.79366,428.42954 566.36513,435.48747 C 558.19784,452.61367 551.6151,470.53938 544.90308,488.19839 C 537.34553,492.57149 530.22036,497.89904 528.73555,507.44293 C 523.45291,523.44897 524.09581,540.44084 523.36707,557.06464 C 528.7193,553.51602 530.28344,547.35397 529.90753,541.16001 L 529.96834,540.11964 L 530.03205,539.01287 L 530.03204,539.01288 z M 552.62805,541.01837 C 552.99943,536.23239 564.83525,549.03535 561.82846,538.95902 C 556.37237,535.5336 545.61233,536.76222 538.72233,538.13096 C 539.32409,541.02971 549.15299,535.2356 547.17669,542.6616 C 548.77073,543.13408 552.80427,543.75454 552.62805,541.01837 z M 548.62805,540.60175 C 552.15909,534.31117 551.75044,545.81327 548.62805,540.60175 z M 558.62653,540.47198 C 551.43798,535.50266 568.96822,543.35302 558.62653,540.47198 z M 545.62805,540.97815 C 543.07537,537.98164 536.75984,542.28181 543.8525,541.73383 C 544.39473,541.59068 545.40886,541.70859 545.62805,540.97815 z M 800.62805,536.66711 C 796.07952,536.20935 784.1289,535.49573 780.64271,536.99284 C 787.28271,537.56261 793.99376,537.14149 800.62805,536.66711 z M 723.42242,534.00873 C 727.8631,525.4351 730.73893,515.7614 731.62805,506.1343 C 733.01514,501.88423 728.89764,503.13876 726.15503,503.0184 C 721.90904,501.74243 724.18663,506.99004 723.62805,509.40148 C 723.37431,517.53396 724.41957,525.8994 722.42805,533.81839 C 700.63631,535.49079 678.69073,534.86547 656.83254,535.03916 C 644.77519,534.81699 632.64998,535.26081 620.64727,534.05143 C 617.17677,525.55238 618.12301,515.83799 617.67317,506.76218 C 618.89292,502.34947 615.74678,502.73471 612.41005,503.32952 C 607.64729,502.93397 611.70283,510.54539 611.14994,513.21285 C 613.24991,520.5631 614.47743,529.07829 619.71388,534.80781 C 633.34398,536.83396 647.29768,535.59714 661.05639,536.01531 C 680.83341,535.80394 700.65481,536.56499 720.3987,535.34401 C 721.48419,535.17239 722.69527,534.92222 723.42242,534.00873 z M 545.62805,532.45935 C 543.60214,527.90604 537.91019,536.64339 544.84912,534.22907 L 545.43917,533.57128 L 545.62805,532.45937 L 545.62805,532.45935 z M 718.50305,532.39337 C 722.87783,532.95351 721.44688,528.75409 721.62805,525.8763 C 721.62805,518.257 721.62805,510.6377 721.62805,503.0184 C 687.98672,503.06972 654.31811,502.46693 620.70007,503.61304 C 620.00329,512.78643 620.46862,522.15255 621.75836,531.26188 C 628.78759,534.11291 637.18596,532.39979 644.77964,532.98064 C 669.35045,532.93492 693.94749,533.31086 718.50305,532.39337 z M 560.62805,524.87164 C 562.06097,520.29955 557.55392,522.19073 554.75692,522.22122 C 550.13934,522.98769 541.42807,522.4028 540.20106,527.36319 C 546.92186,528.53594 553.82312,527.82511 560.62805,528.01837 C 560.62805,526.96946 560.62805,525.92055 560.62805,524.87164 z M 544.62805,525.51837 C 548.01585,522.97049 553.39846,524.36575 547.06434,526.5767 C 545.17878,527.16412 539.8334,527.42875 544.25941,525.72911 L 544.62805,525.51837 z M 551.47253,526.1145 C 552.86353,522.95165 559.42025,522.07302 554.00672,525.67901 C 561.40517,525.75769 550.51445,528.07628 551.47253,526.1145 z M 557.62805,526.07739 C 560.55089,520.47242 558.32118,529.7077 557.62805,526.07739 z M 802.62805,525.95935 C 800.2195,523.61041 800.1513,529.70065 802.62805,525.95935 z M 799.94916,523.93945 C 798.58918,522.36235 786.11744,521.5969 793.00821,522.69296 C 794.68317,522.39509 802.26931,526.40423 799.94916,523.93945 z M 789.62805,522.01837 C 788.10908,518.06728 784.52368,526.43779 789.62805,522.01837 z M 808.23047,517.26837 C 807.73473,504.39511 796.05151,497.31806 787.38298,489.63082 C 785.18325,485.39702 784.37708,480.24566 782.69925,475.66581 C 776.81174,455.55019 768.33963,436.37387 759.99714,417.19978 C 758.45606,414.44621 757.63013,405.74991 757.74304,413.35626 C 759.69208,425.98797 766.17504,437.37455 769.78342,449.57616 C 775.87593,466.37269 778.44108,484.08096 780.95209,501.68283 C 789.89085,503.13269 800.24896,504.49112 805.95911,512.25223 C 807.22717,515.51771 808.68614,528.10392 808.35546,518.42344 L 808.23045,517.26839 L 808.23047,517.26837 z M 545.96136,518.16412 C 547.84425,512.78862 542.41887,508.1302 539.88774,514.35416 C 542.35631,516.71822 541.06038,525.47964 545.86029,519.13049 L 545.96138,518.16411 L 545.96136,518.16412 z M 538.76868,510.36099 C 544.94154,504.59683 553.54687,503.34307 561.62805,502.73349 C 561.7619,488.8899 565.04405,475.25169 568.0826,461.80768 C 570.91601,452.5953 573.50535,443.33269 577.41628,434.51839 C 578.97788,428.20421 585.15653,418.30654 583.94814,414.01839 C 575.14385,433.59387 566.00834,453.13763 560.67804,474.02391 C 558.47251,482.56895 555.6206,491.59281 547.79353,496.68471 C 542.48515,500.45666 533.76144,510.10487 535.51376,514.51839 C 536.3135,512.93864 537.49918,511.57981 538.76868,510.36099 z M 611.12805,501.0047 C 630.64181,500.38739 650.16305,499.89769 669.68793,500.0184 C 665.00391,496.26091 666.15419,489.31787 668.98732,486.448 C 643.63635,485.38572 618.20229,486.59888 592.84,487.31132 C 584.23555,487.81564 575.5271,487.71185 567.01757,489.11008 C 564.74771,493.26673 565.91572,498.28952 565.62805,502.86417 C 580.77768,501.89386 595.95935,501.54961 611.12805,501.0047 z M 776.25006,495.78461 C 778.41238,485.09559 765.16615,488.25699 758.69516,487.17497 C 731.60092,486.10634 704.45351,485.69555 677.34898,486.47745 C 671.88751,486.38351 683.15857,493.20958 677.30876,497.09789 C 672.61039,501.96207 686.0284,499.18879 688.98618,500.04634 C 717.3742,500.10975 745.74925,501.01813 774.12805,501.59779 C 776.95003,501.56765 775.89333,497.52616 776.25006,495.78461 z M 532.14441,493.2684 C 538.73329,488.29686 526.9247,489.00619 529.25624,482.95437 C 528.46394,486.80034 522.43105,500.07213 530.96139,494.43094 L 532.14441,493.26839 L 532.14441,493.2684 z M 813.12097,494.02985 C 811.56372,492.04383 809.53748,497.12243 813.12097,494.02984 L 813.12097,494.02985 z M 674.79651,490.78683 C 672.39736,490.85778 677.33239,496.18098 674.79651,490.78683 z M 811.07178,491.40161 C 814.53029,486.87539 801.52325,487.75521 809.21016,491.93039 L 809.90043,491.83863 L 811.07179,491.40161 L 811.07178,491.40161 z M 544.03754,483.62717 C 550.7701,465.38882 558.5816,447.57009 566.28705,429.7194 C 566.49537,425.53022 560.59468,437.79474 558.95483,440.51709 C 551.05542,455.24635 544.86072,470.91768 540.01291,486.89363 C 538.79154,494.14608 543.52502,485.17868 544.03754,483.62717 z M 798.61743,477.2684 C 793.03261,461.29421 786.71442,445.21594 777.00406,431.30904 C 782.13155,445.06903 789.24446,458.09866 793.76456,472.13775 C 796.34886,476.72954 796.80522,486.54961 801.48512,487.48655 C 801.236,483.93973 799.67409,480.62436 798.61743,477.2684 z M 505.74234,479.9967 C 511.71382,478.0857 522.80129,480.43403 525.93601,477.34603 C 517.20386,477.02138 508.00528,476.88153 499.64709,479.70748 C 495.77672,483.78988 504.38004,479.68423 505.74234,479.9967 z M 619.44604,479.03284 C 632.55204,478.67158 645.65804,478.31032 658.76404,477.94907 C 662.38436,474.09951 666.44025,469.60807 672.38627,471.04559 C 676.62425,470.23579 685.68163,478.4933 678.88239,471.19379 C 670.58706,463.85601 662.03029,473.04235 654.07082,475.05719 C 640.70426,477.5224 651.16621,459.5568 655.15253,454.77542 C 661.97544,448.05258 672.23511,450.93834 680.67858,451.79469 C 689.33106,453.15537 692.67236,463.0606 694.06339,470.59956 C 693.89981,474.42132 695.4959,476.01609 699.27013,474.85427 C 701.97316,474.4704 705.97878,475.70456 705.75279,471.6824 C 707.8593,463.48232 710.8858,452.8742 720.69509,451.46376 C 729.73109,450.01835 741.61407,450.07264 746.60734,459.26262 C 749.53418,463.63128 756.0281,477.3489 745.91701,475.83736 C 741.63356,481.71413 757.1284,478.0215 760.91929,478.95174 C 770.01427,481.27541 769.92347,474.1708 767.32595,467.75505 C 764.10352,455.65724 760.67583,443.48484 755.68306,432.00807 C 749.13097,427.04786 739.82454,429.33256 732.04245,428.17969 C 689.05804,426.39531 645.98929,426.7966 603.00091,428.27574 C 594.62252,428.01086 584.40737,428.39201 583.45719,438.98743 C 579.17512,451.79082 574.81088,464.64504 571.97942,477.85538 C 576.41051,483.73148 588.17735,478.35593 595.46171,479.73518 C 603.45601,479.48527 611.4509,479.25354 619.44604,479.03284 z M 590.18756,473.9003 C 591.53078,465.69319 593.61334,454.60165 603.33492,452.81181 C 612.22439,451.80677 624.97137,448.75243 630.16998,458.42447 C 632.95574,463.16895 641.38874,477.70943 630.15644,475.836 C 616.65291,476.49432 603.13631,476.81895 589.62531,477.28223 C 589.81272,476.15492 590.00014,475.02761 590.18756,473.9003 z M 833.62805,479.08661 C 829.96406,476.86901 817.63357,474.0137 817.61543,476.11189 C 822.65331,476.52627 829.68035,480.04373 833.62805,479.08661 z M 773.97314,425.47525 C 771.12684,421.80711 774.91365,429.98832 773.97314,425.47525 z M 618.6131,422.94308 C 625.9385,422.37249 635.16912,422.59075 641.20754,421.19742 C 623.7149,420.64727 606.14368,421.80848 588.7375,423.59427 C 582.74607,425.85415 596.98598,423.79731 599.27242,423.95634 C 605.71727,423.58092 612.16459,423.24886 618.6131,422.94308 z M 754.11481,422.96094 C 736.79187,421.31892 719.33248,420.79796 701.93124,420.84008 C 706.51197,422.15271 718.02479,422.23034 725.45426,422.80234 C 735.41284,423.16751 745.43836,424.1408 755.36904,423.53641 L 755.28194,423.38834 L 754.11478,422.96095 L 754.11481,422.96094 z M 616.12347,419.91135 C 626.16811,419.16608 636.36079,418.85635 646.12805,416.18503 C 626.75426,415.7438 607.37692,417.39753 588.14211,419.30826 C 592.57974,423.15909 604.77744,419.56325 611.94084,420.15158 C 613.33513,420.07281 614.72935,419.99254 616.12347,419.91135 z M 754.62805,420.03745 C 747.73168,416.44332 738.26696,417.89676 730.38763,416.68161 C 719.58783,416.37657 708.61269,415.39194 697.89545,416.73133 C 709.59193,419.38385 721.96598,418.84757 733.94886,419.76161 C 740.82245,419.3146 748.10481,422.52589 754.62805,420.03745 z M 617.12805,414.80844 C 650.89022,413.55179 684.72819,412.91357 718.49609,414.20984 C 729.86648,414.96453 741.24796,415.53127 752.62805,416.11517 C 754.59141,408.86685 747.08642,407.7462 741.33303,407.90672 C 700.98807,404.33842 660.33229,402.97054 619.94776,406.74866 C 609.61823,407.58036 599.25951,408.16943 588.96723,409.38823 C 588.38589,412.82666 585.36412,419.05826 591.26105,416.53796 C 599.86324,415.71973 608.50289,415.31435 617.12805,414.80844 z M 682.82068,415.27094 C 675.44168,415.1366 660.14167,414.94906 657.61277,415.49509 C 666.97466,415.57152 676.35044,415.73953 685.70566,415.39334 C 684.74617,415.30967 683.78256,415.30298 682.82068,415.27094 z"
         id="path2112"
         sodipodi:nodetypes="cccccccccccccccccccccccccccccccccccccccccccccccccccccccccccccccccccccccccccccccccccccccccccccccccccccccccccccccccccccccccccccccccccccccccccccccccccccccccccccccccccccccccccccccccccccccccccccccccccccccccccccccccccccccccccccccccccccccccccccccccccccccccccccccccccccccccccccccccccccccccccccccccccccccccccccccccccccccccccccccccccccccccccccccccccccccccccccccc" />
      <path
         style="fill:#aaaaaa;fill-opacity:1"
         d="M 526.32776,673.46893 C 521.71118,672.19856 521.16651,667.50562 526.76773,669.7996 C 525.33496,662.94258 525.05156,652.49893 525.13157,644.17839 C 524.86426,621.49087 525.77506,598.67103 522.13831,576.18424 C 520.80365,556.34491 520.17834,536.25736 522.95004,516.51839 C 522.8392,510.38593 529.31647,502.78221 526.55597,498.18743 C 516.15078,497.31519 504.79576,501.10591 495.03215,495.9388 C 491.78623,488.96751 493.89009,476.66789 503.34306,476.10222 C 511.33789,475.3478 520.14658,472.34182 527.83908,475.50256 C 530.22639,478.49558 533.53917,492.68687 537.07799,483.68115 C 545.31176,458.28975 556.51364,433.50219 572.98478,412.34842 C 579.93706,405.31579 590.87155,406.98112 599.83371,405.47238 C 653.5498,400.91073 707.78735,400.60907 761.37517,406.93715 C 769.28202,411.17906 773.85976,419.70504 778.88227,426.88649 C 790.18579,444.54064 798.57685,463.88141 805.24971,483.69899 C 812.70971,491.18725 806.78542,468.33743 818.24298,472.6678 C 826.05079,472.98251 838.4006,473.59583 838.12473,484.20284 C 838.00494,487.65777 839.42607,492.20947 838.43783,495.20079 C 830.81353,499.54657 821.90177,497.2051 813.62805,497.45621 C 823.40618,518.8718 822.32029,543.04079 821.69999,566.01822 C 820.76138,579.9257 818.25197,593.71068 818.72168,607.71052 C 818.26238,627.49087 819.37668,647.37711 817.59287,667.08413 C 816.13243,670.87788 830.5098,667.82583 821.78333,672.49737 C 818.61958,674.23805 815.44133,675.97329 811.70901,675.30877 C 718.18202,675.52182 624.65504,675.73483 531.12805,675.94781 C 529.52795,675.12152 527.92786,674.29523 526.32776,673.46893 z M 782.62805,669.63269 C 778.09523,660.95383 780.106,650.79777 779.63246,641.35833 C 779.63099,637.24501 779.62952,633.13169 779.62805,629.01837 C 707.62805,629.01837 635.62805,629.01837 563.62805,629.01837 C 563.30745,641.36669 564.4996,653.87056 562.51175,666.0873 C 559.29253,670.21528 561.91939,670.45675 565.97773,670.01837 C 638.19388,669.92173 710.41648,670.29103 782.62805,669.63269 z M 790.74988,641.01837 C 792.34942,643.60447 794.60401,646.21249 794.34878,641.39933 C 799.11399,637.95488 802.01848,643.66624 807.01702,642.1114 C 809.73277,645.32549 810.48597,647.61596 810.35705,641.97199 C 810.46663,639.02757 810.57328,621.45737 809.20999,630.84041 C 807.34628,632.10852 803.41157,630.94252 800.78116,631.30952 C 796.49141,630.25681 788.91605,634.34572 789.35608,629.66176 C 788.77042,639.65284 788.95,649.68867 789.1808,659.68744 C 789.80382,653.52658 788.81321,646.92866 790.74988,641.01837 z M 534.35144,654.76837 C 533.32767,653.83795 534.35342,667.83956 534.51782,658.0184 L 534.47623,656.28675 L 534.35145,654.76839 L 534.35144,654.76837 z M 554.29034,659.76837 C 552.64919,660.58681 555.17452,664.8938 554.29034,659.76837 z M 554.47784,642.26837 C 554.34398,638.53741 554.70184,625.79129 552.82476,633.86863 C 553.53964,627.81395 546.52273,635.29124 542.43907,632.6828 C 534.46658,634.76847 535.48785,627.57791 534.34973,622.40673 C 533.19156,630.51411 533.46414,638.93037 534.21191,647.10172 C 536.45728,649.98016 534.58914,640.57514 537.62805,646.01839 C 540.48115,641.71014 538.8415,650.44103 542.19677,644.52409 C 544.17296,647.33034 555.84886,646.8785 550.13813,644.00208 C 557.02671,638.85624 551.64411,658.4222 554.31034,656.77562 C 554.54814,651.94447 554.50514,647.1037 554.47784,642.26837 z M 546.62805,644.57739 C 548.99871,640.76851 549.4023,646.72207 546.62805,644.57739 z M 810.284,652.74939 C 808.68133,654.7688 811.26132,658.37985 810.284,652.74939 z M 796.23224,641.28925 C 794.17888,641.92546 797.66528,646.05645 796.23224,641.28925 z M 797.87805,629.35614 C 792.75254,628.47193 797.0598,630.99717 797.87805,629.35614 z M 573.84094,622.58179 C 582.30676,619.92643 591.56499,621.52847 600.34771,621.0175 C 607.31755,621.15097 617.53507,620.87215 622.55218,620.01839 C 629.14859,622.38809 638.70107,622.35426 645.64777,620.01839 C 646.46789,618.16605 648.00959,624.9491 648.124,618.99736 C 648.53704,614.42462 655.99087,615.37799 656.03553,618.87089 C 659.63246,612.06223 671.23626,616.68429 678.03029,615.1053 C 722.24581,614.71675 766.46037,614.18656 810.67755,614.01837 C 815.39493,600.9873 816.90539,587.00171 818.93729,573.35472 C 820.41303,567.38102 819.3366,552.7602 811.82389,554.13851 C 810.99547,564.98737 797.63192,564.79524 789.58927,566.21915 C 760.31127,569.18319 730.80541,568.00473 701.42486,568.45145 C 653.44931,568.31826 605.46172,568.96298 557.49461,567.97732 C 548.87405,567.37705 539.51076,566.58069 532.10375,561.8134 C 530.78582,557.82544 529.16418,550.28441 525.63399,558.22685 C 521.51072,569.82247 524.99067,582.43781 526.96361,594.15073 C 529.48129,602.94429 529.95694,613.43838 536.81438,620.18582 C 544.19989,624.48746 553.32119,623.23348 561.54407,623.92251 C 565.59867,623.75473 570.12389,624.57891 573.84094,622.58179 z M 537.12805,612.38379 C 614.82337,611.4999 692.53294,611.83162 770.23385,611.91352 C 782.03138,612.00968 793.83723,611.89037 805.62814,612.26839 C 745.97216,613.29528 686.2853,612.7427 626.61739,612.79057 C 596.78843,612.67491 566.95335,612.76281 537.12805,612.38379 z M 527.65405,580.06702 C 523.65398,569.60215 537.56538,572.75054 543.54256,572.23621 C 627.3266,571.38845 711.12023,570.88947 794.90773,571.36844 C 801.18507,572.95958 812.33873,568.865 815.37244,575.59534 C 813.91624,583.5852 801.55883,578.65492 795.48699,580.28367 C 706.6103,581.05895 617.70824,579.92507 528.85016,582.30188 C 528.45146,581.55693 528.05275,580.81197 527.65405,580.06702 z M 652.87805,618.35614 C 647.75254,617.47193 652.0598,619.99717 652.87805,618.35614 z M 661.81555,617.33527 C 657.36848,616.60099 662.38057,619.15823 661.81555,617.33528 L 661.81555,617.33527 z M 667.87805,617.35614 C 662.75254,616.47193 667.0598,618.99717 667.87805,617.35614 z M 785.12805,565.0705 C 793.12415,563.30597 803.69221,564.24748 809.28673,557.96582 C 811.10271,553.09578 809.10294,551.91473 806.8928,556.59631 C 797.19867,560.78283 786.14924,559.77241 775.81175,560.7205 C 709.60129,562.74187 643.33438,563.36533 577.09937,562.35699 C 563.15708,561.68287 548.79207,562.76486 535.36158,558.29548 C 532.60035,554.90317 531.63736,552.82849 531.93665,558.70711 C 537.92229,565.72226 550.01613,565.32254 558.92292,566.28169 C 630.05015,566.98344 701.19047,566.55835 772.31313,565.54012 C 776.5853,565.42188 780.86521,565.39841 785.12805,565.0705 z M 713.12805,560.01837 C 725.2071,558.31057 737.7343,559.33856 749.99093,559.00272 C 756.6827,557.60994 769.30915,562.23905 771.20198,553.40175 C 773.98749,552.4972 770.02349,544.54477 773.43154,545.83945 C 771.98234,537.86663 775.76674,534.70046 775.51625,526.08875 C 776.06044,518.80257 776.44327,511.5058 776.88159,504.2128 C 762.35153,502.57058 747.71255,503.23405 733.12805,503.5184 C 732.47813,514.53484 730.11052,525.59384 724.97498,535.41947 C 717.4303,538.12559 708.07743,536.20805 699.805,536.91015 C 672.43761,536.96115 645.05028,537.35691 617.69586,536.5603 C 611.72107,526.62833 610.06421,514.79423 607.98456,503.5184 C 593.94595,503.82502 579.86937,503.69224 565.88739,505.14981 C 565.40392,511.38323 564.81888,517.8526 565.85713,523.89628 C 565.92122,528.25289 568.28417,538.5239 569.13096,545.11103 C 571.35625,549.29019 570.36708,553.30089 572.28763,558.22843 C 572.83995,561.68731 577.66081,559.31886 580.22245,560.03465 C 624.0012,560.1899 667.78984,560.446 711.55972,560.69606 C 711.16266,560.36813 713.43833,560.77643 713.12805,560.01837 z M 555.06647,558.91876 C 550.65006,559.79643 556.11172,552.63321 550.05733,552.74224 C 548.26558,552.86256 553.43269,550.02574 552.3927,547.10859 C 550.16992,542.92547 536.63177,547.99798 536.39454,539.68779 C 534.41171,533.92283 545.89768,533.89726 538.81191,537.54034 C 538.4498,545.25367 549.78738,542.31657 554.98397,543.63529 C 557.96282,543.83379 560.94168,544.03228 563.92053,544.23077 C 564.48763,535.81305 556.49304,535.75727 549.9126,535.46423 C 549.7417,536.05575 554.09081,530.27795 548.47805,531.07722 C 544.19265,532.93959 533.40152,526.52449 536.86728,532.59724 C 532.13042,536.09141 535.36294,548.46475 535.72069,555.03602 C 540.6346,557.57672 548.79953,561.59461 555.06647,558.91876 z M 536.00952,550.97925 C 537.04212,542.98921 536.32365,555.5916 540.28345,552.61709 C 543.86581,553.34294 533.48212,557.24376 536.00952,550.97925 z M 528.711,552.70697 C 532.63051,546.90385 528.6198,536.78742 531.00528,529.41257 C 532.61113,519.43561 532.4221,507.52912 541.00433,500.57617 C 547.05324,494.94503 554.68323,490.36028 556.81834,481.70996 C 562.74799,460.99227 568.93553,440.15983 579.11846,421.04372 C 582.20871,416.3599 583.23463,405.34418 575.5277,413.00931 C 571.62085,420.57118 569.63875,429.3916 565.36244,437.0042 C 557.71713,453.56009 550.89418,470.61352 544.84078,487.74682 C 538.01996,492.46258 530.25339,496.19062 529.02939,505.83867 C 524.30864,521.04988 523.26482,537.17813 522.83888,553.01216 C 522.99614,561.64693 524.57613,555.53441 528.71102,552.70694 L 528.711,552.70697 z M 819.38647,540.76837 C 819.02679,524.20908 817.34608,506.19254 806.75046,492.73253 C 800.9824,489.83076 794.94007,488.00539 794.27246,480.02952 C 786.72416,459.39062 778.18352,439.05422 768.16625,419.51561 C 770.64795,409.62118 750.7956,406.29457 758.06461,418.0668 C 767.48271,445.19545 779.58345,472.39794 779.62805,501.62839 C 788.97401,503.19872 800.0575,504.38077 805.69128,512.93403 C 809.47183,521.52602 807.14713,531.47599 810.02134,540.20948 C 811.41148,537.06977 808.83974,524.07108 811.08939,526.08068 C 812.49667,534.41664 810.52308,543.22882 812.77121,551.32624 C 817.0719,552.93704 820.5405,562.31123 819.61254,552.95121 C 819.59723,548.88944 819.50508,544.8283 819.38647,540.76837 z M 809.22583,521.9115 C 807.59834,514.29624 807.40598,505.37053 800.33263,500.41423 C 793.44339,494.12991 784.38739,487.95005 783.82839,477.74305 C 777.86504,457.29485 769.32263,437.74874 760.81057,418.27477 C 758.84773,415.57293 759.42607,408.48593 761.09425,415.32935 C 769.37957,435.66703 779.19502,455.4951 784.53215,476.9149 C 786.2169,487.71915 795.54334,494.07128 802.9576,500.96444 C 808.16409,504.80233 811.40943,519.86266 809.22583,521.9115 z M 802.00305,556.00305 C 802.54673,556.023 805.72372,539.42952 798.10013,545.74719 C 797.29933,549.02743 792.08735,551.45385 797.62805,551.9114 C 795.49871,552.84939 794.55954,555.50663 794.72351,556.85938 C 797.1394,556.4996 799.55528,556.06708 802.00305,556.00305 z M 532.86798,537.26837 C 533.53678,532.73674 532.13802,522.02477 531.82283,532.4316 C 531.81207,536.98394 531.47884,546.89645 532.34564,548.20213 C 532.64589,544.56528 532.73453,540.91408 532.86798,537.26837 z M 798.62805,542.19427 C 805.34481,542.92429 804.73684,532.74781 797.76203,535.93598 C 791.39763,537.61364 778.61744,531.81344 778.75396,541.68883 C 778.31768,544.51635 784.08881,542.27674 786.29858,542.94427 C 790.41437,542.86972 794.54191,542.71912 798.62805,542.19427 z M 806.23224,539.28925 C 804.17888,539.92546 807.66528,544.05645 806.23224,539.28925 z M 723.84314,534.26837 C 728.35651,525.55383 731.38707,515.62343 731.62805,505.75339 C 732.96186,501.29455 728.05433,503.54491 725.41915,503.35262 C 721.31791,502.61764 723.89076,507.94434 723.29209,510.39053 C 723.15763,517.65198 724.52241,525.15204 722.79988,532.21477 C 715.61986,536.6659 706.09516,534.09238 697.91298,534.9598 C 673.73513,534.73012 649.50496,535.72237 625.35956,534.3139 C 614.78252,534.39177 619.76304,521.77721 618.17097,515.1251 C 617.91549,511.08783 617.60948,507.05396 617.32855,503.0184 C 614.95935,503.39375 610.94852,502.31535 609.49975,503.5058 C 610.34758,514.84732 613.41538,525.87513 618.54437,536.01837 C 652.03587,535.84905 685.54272,536.44669 719.02176,535.53603 C 720.60921,535.28002 722.59207,535.49437 723.84314,534.26837 z M 803.02106,532.43658 C 805.0631,525.71816 792.1052,534.6137 800.95326,533.89359 C 801.76725,533.67345 802.65749,533.26019 803.02106,532.43658 z M 721.40656,518.09503 C 721.50437,511.19335 723.739,499.23913 712.75417,502.37148 C 681.66624,501.82806 650.54546,501.78291 619.48395,503.33688 C 620.16395,512.82059 619.87892,522.45779 621.88291,531.77774 C 634.5196,533.67732 647.54119,532.50633 660.33421,532.82902 C 680.5989,532.74237 700.86343,532.62112 721.12805,532.51837 C 721.22089,527.71059 721.31372,522.90281 721.40656,518.09503 z M 560.76416,528.54895 C 563.73327,517.16111 549.83429,521.67417 543.77406,523.53061 C 536.52114,524.53705 538.45187,531.06131 545.29226,528.98427 C 550.44153,528.96401 555.65064,529.22217 560.76416,528.54895 z M 546.44153,520.97833 C 552.74211,521.44175 551.80691,516.17307 551.93519,513.76613 C 553.0103,509.97355 552.66027,507.37604 550.45151,512.01839 C 548.73509,504.30297 535.91856,514.27649 536.8007,520.56519 C 535.74602,525.42834 534.6979,530.63875 538.81053,524.46188 C 540.83983,522.41431 543.71061,521.59275 546.44153,520.97833 z M 802.62805,526.50366 C 798.60246,519.12225 789.24098,521.54041 782.24904,521.47832 C 780.34058,521.38778 779.96255,527.95368 781.48336,528.01837 C 788.3813,527.79026 795.41418,528.62759 802.19528,527.27262 L 802.53064,526.93101 L 802.62805,526.50369 L 802.62805,526.50366 z M 534.284,518.74939 C 532.68133,520.7688 535.26132,524.37985 534.284,518.74939 z M 803.62805,521.01837 C 805.10089,518.54318 803.21867,508.30094 797.14852,511.97051 C 798.94513,515.55459 796.61808,518.4075 794.85205,519.65548 C 796.34234,518.85083 805.49706,524.32828 803.62805,521.01837 z M 544.12805,507.31946 C 551.04225,502.31606 566.22389,505.95883 562.72485,492.99123 C 565.14323,467.48139 574.06961,443.15978 583.26532,419.43574 C 585.12118,415.95408 584.74077,406.15801 582.72399,415.51839 C 579.36871,425.63193 573.34419,434.62281 570.12571,444.83194 C 564.95142,457.78089 561.14602,471.20921 557.05016,484.50595 C 553.17242,495.19055 540.70858,499.0779 536.10164,509.38092 C 533.62927,513.69829 534.63938,519.49334 537.51515,512.24459 C 539.26643,510.07907 541.71493,508.62995 544.12805,507.31946 z M 574.4342,502.35751 C 635.5958,501.05443 696.78303,501.66297 757.95698,501.5184 C 764.18065,501.5184 770.40432,501.5184 776.62799,501.5184 C 776.37044,497.07806 777.419,492.24731 775.3139,488.17263 C 766.89088,486.12399 757.99282,487.38251 749.51536,485.87718 C 696.12203,485.37889 642.71113,485.47052 589.32503,486.51473 C 581.58182,487.26021 573.20442,486.21224 565.9338,488.91966 C 564.87688,492.48146 563.4691,503.37645 565.20649,503.82391 C 568.1933,502.91721 571.34162,502.66661 574.4342,502.35751 z M 669.26294,497.9458 C 659.9084,490.57812 677.90974,480.7286 678.456,492.9556 C 678.42793,496.86466 672.48688,502.43625 669.26294,497.9458 z M 673.62805,496.0184 C 672.10926,492.06719 668.5235,500.43783 673.62805,496.0184 z M 669.8114,492.80173 C 665.62858,491.2256 672.41818,497.28237 669.8114,492.80173 z M 676.05383,491.68561 C 672.5431,485.56411 674.30855,498.97239 676.2023,493.16646 L 676.05384,491.68561 L 676.05383,491.68561 z M 521.57129,494.05383 C 527.02103,490.97041 525.30725,483.19932 526.56034,477.75296 C 526.23204,475.44143 521.04945,477.66815 518.83122,477.12351 C 512.54182,477.60763 505.9968,477.24863 499.9687,479.06199 C 495.82584,481.48729 498.10163,485.10968 499.18742,486.73811 C 491.95372,487.43079 498.23825,497.3547 504.29227,495.05209 C 510.04008,495.63724 515.94664,495.43687 521.57129,494.05383 z M 510.89886,493.41422 C 514.90515,492.48768 512.88793,495.24593 510.89886,493.41422 z M 497.62805,491.18506 C 500.32753,482.05024 500.38926,497.28705 497.62805,491.18506 z M 508.707,488.60172 C 509.51986,483.33823 509.65088,492.82893 508.707,488.60172 z M 521.50049,486.35577 C 519.61272,484.16439 524.74805,481.44728 521.29578,479.30126 C 527.64459,477.03326 523.48906,485.22674 523.87081,487.9485 L 522.84033,487.61963 L 521.50049,486.35577 L 521.50049,486.35577 z M 501.62805,484.07742 C 503.76653,479.04716 509.38672,486.72197 502.21756,484.75757 L 501.78844,484.47228 L 501.62805,484.07741 L 501.62805,484.07742 z M 511.19876,484.29453 C 503.97359,482.98751 509.59302,477.04515 512.62805,482.50244 C 514.33668,485.09417 514.95322,485.15556 511.19876,484.29453 z M 532.77637,492.69922 C 538.11646,488.64095 531.5428,489.08562 529.70616,485.57265 C 529.90334,476.87747 525.05486,494.96988 525.6635,495.85309 C 528.54386,496.68369 531.14446,494.92807 532.77637,492.69922 z M 813.62805,494.0184 C 809.88061,489.91992 809.8806,498.11683 813.62805,494.0184 z M 815.75214,490.75171 C 812.50001,488.76597 818.44553,495.38126 815.75214,490.75171 z M 812.23505,490.43661 C 810.82541,484.08342 802.22901,491.5144 810.99413,492.03457 C 811.88918,492.18533 812.64708,491.1997 812.23505,490.43661 z M 544.41174,483.72513 C 552.3757,462.81514 560.78293,442.02674 570.59535,421.92696 C 565.87593,426.3408 562.66098,433.57635 559.25052,439.50145 C 551.6537,454.61518 544.06707,469.98899 539.82981,486.42921 C 538.76056,494.42481 543.89518,485.68823 544.41174,483.72513 z M 802.1225,486.7684 C 795.1211,464.37913 785.76638,442.31849 772.15583,423.14952 C 781.83252,443.20709 790.75366,463.66417 798.23543,484.65751 C 798.40351,486.47763 802.96064,492.11215 802.1225,486.7684 z M 629.75806,482.3652 C 642.96806,482.14276 656.17806,481.92032 669.38806,481.69788 C 669.82617,479.36576 667.43247,474.37039 671.58264,475.52938 C 691.01206,474.97958 710.54168,475.36328 729.85924,473.0676 C 734.46702,469.63103 728.33667,467.66193 726.69082,472.01839 C 728.31629,466.55134 713.91413,471.0112 719.19806,466.14835 C 712.72517,463.41344 719.55995,458.37276 722.24013,464.10566 C 724.6032,464.69547 728.44304,470.00325 730.15341,466.04297 C 720.6954,463.16501 733.43959,451.39152 737.62805,458.05646 C 736.20051,461.13265 726.94233,461.9685 734.03766,465.25425 C 739.05641,466.58035 739.41045,467.57652 734.93735,470.08938 C 735.6011,473.78093 750.2578,470.6255 743.05709,478.42458 C 736.55176,480.44467 728.67905,481.92206 722.23862,480.34992 C 730.42552,478.23257 714.62552,480.39756 712.1343,480.03874 C 698.99727,480.65192 685.82622,480.64899 672.71138,481.65022 C 694.26722,482.0741 715.90277,482.52925 737.43533,481.24327 C 741.41486,478.17444 738.60251,483.92497 743.05549,480.33609 C 749.97233,482.98526 758.05864,482.14776 765.4713,482.19208 C 773.64441,481.17932 768.12343,468.20326 768.76226,465.96624 C 765.23949,463.53345 765.09697,453.09584 762.45564,447.79318 C 760.14631,441.2213 757.62991,434.49597 756.76309,428.1759 C 746.63867,425.62176 735.84447,426.43715 725.432,425.90795 C 683.0799,425.512 640.70249,425.24945 598.36537,426.57891 C 592.29041,426.95884 583.06563,426.86371 583.03443,434.01839 C 580.40357,435.38267 585.55424,435.68193 582.28857,439.59616 C 580.67518,443.94002 579.5777,440.19983 579.6876,446.09218 C 577.54512,454.6529 575.80085,463.79914 571.54512,471.46714 C 568.89809,472.27767 569.44793,478.59421 571.3541,473.32652 C 573.55826,476.75925 564.9731,483.11797 570.09844,484.2317 C 589.95553,482.92319 609.86836,482.79519 629.75806,482.3652 z M 680.29474,471.35172 C 677.36843,465.87044 684.43591,472.74929 680.29474,471.35172 z M 715.12805,471.0184 C 716.17197,468.02681 720.66881,474.67107 715.12805,471.01839 L 715.12805,471.0184 z M 739.62805,462.0184 C 738.63017,458.39634 746.29166,464.87689 739.62805,462.01839 L 739.62805,462.0184 z M 773.61273,481.7684 C 772.18457,473.23873 769.74038,486.42316 773.61274,481.76839 L 773.61273,481.7684 z M 830.62805,481.45938 C 827.85369,479.31478 828.25751,485.26822 830.62805,481.45938 z M 834.38654,479.7684 C 830.19816,475.08749 814.36272,473.57216 813.60279,477.534 C 820.43741,475.79479 829.43335,481.37257 834.38652,479.76839 L 834.38654,479.7684 z M 734.87805,479.35611 C 729.75262,478.47192 734.05968,480.99724 734.87805,479.35611 z M 736.35577,475.2886 C 732.36579,474.6268 724.94917,475.81327 733.12805,475.69025 C 733.20752,475.68628 739.72694,475.69062 736.35577,475.2886 z M 570.23224,462.28922 C 568.1789,462.9255 571.66527,467.05644 570.23224,462.28922 z M 576.23224,450.28922 C 574.1789,450.9255 577.66527,455.05644 576.23224,450.28922 z M 761.23224,438.28922 C 759.1789,438.9255 762.66527,443.05644 761.23224,438.28922 z M 608.62805,423.97342 C 619.23607,422.97282 630.02311,423.21117 640.51669,421.37944 C 634.75675,419.61859 626.30738,421.11981 619.56748,421.02137 C 608.2615,421.81691 596.68704,421.69216 585.62805,424.10371 C 592.45056,426.31343 601.2603,423.78792 608.62805,423.97342 z M 756.50647,422.97534 C 738.74635,421.08081 720.79843,420.81482 702.93579,420.68482 C 696.68031,421.43461 710.59282,422.26384 712.93228,422.35619 C 727.59441,422.70792 742.26794,424.40998 756.91613,424.06329 C 757.95951,424.00837 756.80366,422.90458 756.50647,422.97534 z M 620.96881,420.03265 C 629.30892,419.84022 637.58737,418.92527 645.67073,417.10425 C 663.3417,416.21832 681.11954,415.96886 698.76309,417.41106 C 714.91017,419.96314 731.37895,420.0825 747.70035,420.76486 C 751.49695,421.88109 758.57924,419.50646 750.92115,418.11235 C 726.57216,415.13759 701.93621,416.06166 677.45062,415.68763 C 649.36473,415.9425 621.15948,415.23736 593.19017,418.18617 C 588.83582,417.99751 585.38627,421.43557 591.80606,420.89771 C 601.53225,421.05132 611.25545,420.45826 620.96881,420.03265 z M 624.12805,414.91397 C 664.19862,413.87197 704.32763,413.97669 744.37805,415.66927 C 747.46138,415.87812 750.54472,416.08696 753.62805,416.29581 C 755.68549,408.88126 748.25903,407.72315 742.30319,407.74874 C 703.95196,403.48948 665.23615,404.04078 626.74307,405.69206 C 613.8725,406.5326 600.94285,407.77041 588.19444,409.44111 C 582.87084,421.10932 599.67066,415.22582 605.92218,415.79189 C 611.98924,415.46791 618.05813,415.17874 624.12805,414.91397 z"
         id="path2110"
         sodipodi:nodetypes="ccccccccccccccccccccccccccccccccccccccccccccccccccccccccccccccccccccccccccccccccccccccccccccccccccccccccccccccccccccccccccccccccccccccccccccccccccccccccccccccccccccccccccccccccccccccccccccccccccccccccccccccccccccccccccccccccccccccccccccccccccccccccccccccccccccccccccccccccccccccccccccccccccccccccccccccccccccccccccccccccccccccccccccccccccccccccccccccccccccccccccccccccccccccccccccccccccccccccccccccccccc" />
      <path
         style="fill:#6e6e6e;fill-opacity:1"
         d="M 527.12805,673.30127 C 524.60064,671.86287 519.81242,669.95655 525.44385,670.20679 C 530.55385,669.04937 524.29701,659.31686 526.07767,654.38574 C 525.12288,626.99945 526.03448,599.45831 522.07084,572.26515 C 520.53373,550.39252 520.10202,527.89557 525.79711,506.55043 C 529.50948,500.79359 528.4548,496.16175 520.94715,497.74819 C 512.24013,496.68276 502.40822,499.47605 494.46917,495.31253 C 491.70375,487.15279 495.75427,475.69173 505.88118,475.97693 C 513.43957,475.87713 524.46067,470.8604 529.5001,478.52414 C 529.33337,486.29777 537.17442,489.98688 538.33261,480.48882 C 546.5243,455.73473 557.71002,431.53607 574.35121,411.30267 C 580.27043,405.28759 589.62318,407.87248 597.13391,406.13115 C 646.48353,400.61881 696.37922,401.34283 745.80327,405.4397 C 753.89441,406.76784 763.96336,406.01344 769.26189,413.50853 C 784.87788,433.58398 795.57718,457.09302 803.94426,480.98781 C 805.02511,488.32012 812.88171,485.26648 810.52175,478.83982 C 812.35152,469.34065 825.75509,473.50048 832.33294,475.2189 C 839.38808,478.54701 841.65804,494.78004 832.88308,496.99429 C 827.64568,499.05962 815.49861,494.72798 814.2268,499.05175 C 823.83773,523.58112 822.76167,550.65654 820.44846,576.43071 C 818.33077,594.84174 819.05859,613.48383 818.4711,631.99996 C 818.24687,644.50195 817.96566,657.3205 817.22741,669.60718 C 819.71596,670.79224 828.63223,669.72113 822.01959,672.05473 C 818.74217,673.69203 815.51537,675.55301 811.70904,674.85347 C 718.51538,675.25929 625.32171,675.66511 532.12805,676.07092 C 530.46139,675.14771 528.79472,674.22449 527.12805,673.30127 z M 782.19617,667.76276 C 779.38537,657.24039 780.21228,646.07502 779.417,635.23946 C 778.71081,632.78892 780.83272,627.34941 776.67321,628.54865 C 705.66103,629.25594 634.64299,628.90822 563.62805,629.01837 C 563.30605,641.05911 564.38309,653.24186 562.50072,665.16199 C 557.13242,673.06109 572.34602,668.17103 576.84998,669.65654 C 645.78974,670.23758 714.73275,669.9471 783.67413,670.01837 C 783.18148,669.2665 782.68882,668.51463 782.19617,667.76276 z M 534.72546,661.74524 C 534.85512,657.45012 535.31197,650.51871 539.94992,655.60901 C 544.57261,653.90803 552.50741,660.09046 553.01989,652.23207 C 554.22712,656.15881 552.77987,667.43374 554.63118,667.1152 C 555.93267,653.8874 555.45914,640.56913 555.69623,627.29547 C 548.57862,626.15744 540.72459,626.75979 534.46513,622.86499 C 532.81393,632.1655 533.96265,641.95172 533.64196,651.45139 C 533.8226,656.66079 533.38868,665.47328 534.25584,668.21032 C 534.55256,666.06814 534.64404,663.90406 534.72546,661.74524 z M 790.43231,650.20624 C 794.11128,653.27236 797.12696,648.64368 800.62805,653.04407 C 804.66488,652.1246 812.00133,648.71498 809.35232,656.82795 C 808.81984,660.08599 810.79761,674.90427 811.39633,664.53036 C 811.36003,650.51312 811.07235,636.45943 810.37309,622.47254 C 808.74918,623.62791 797.36215,625.5768 791.12805,625.79339 C 786.74102,623.94431 788.38346,628.74358 788.0919,631.41033 C 787.91915,644.12159 788.15112,656.84063 789.12805,669.51837 C 789.55413,663.08269 789.58542,656.6011 790.43231,650.20624 z M 807.62805,649.01837 C 810.11614,645.12528 810.11597,652.91156 807.62805,649.01837 z M 574.82513,622.9129 C 597.50552,621.27618 620.32365,621.95638 643.06422,621.61932 C 673.6437,621.39662 704.24648,621.67237 734.80691,620.56863 C 740.64297,621.05766 736.68884,612.32424 736.59667,619.01839 C 728.94947,612.11966 746.04648,616.34027 750.2495,615.32211 C 753.85155,614.8718 758.18621,616.67875 752.00054,616.33553 C 748.49734,618.26264 742.19336,619.14391 749.97366,619.57 C 753.0955,620.23955 765.97753,618.51914 756.01005,617.69332 C 760.5469,614.13285 769.20328,615.56146 776.37668,615.09696 C 786.9023,615.32926 797.61266,614.33169 808.01879,615.91174 C 812.52997,613.3638 814.30682,602.74471 815.84831,596.386 C 817.99987,583.97063 820.66974,571.04704 818.1861,558.51839 C 820.18512,555.68815 819.61751,543.11528 819.48217,536.47569 C 819.01711,521.22547 816.52664,504.84866 806.90063,492.52192 C 798.22122,490.07264 794.2614,482.44396 792.12369,473.9743 C 786.63525,457.27328 779.02892,441.43804 771.59992,425.55154 C 769.52052,418.65098 765.6658,406.18085 756.69507,410.54347 C 757.02291,418.33976 758.48454,425.08609 762.48234,430.7665 C 765.37508,440.27834 770.3037,449.40944 771.05456,459.41529 C 772.6754,461.99782 776.05058,471.3918 776.75678,477.67047 C 778.45073,485.65122 779.16293,493.78222 780.04779,501.87863 C 789.05929,503.44303 799.28198,505.05544 805.32419,512.57513 C 808.78659,522.18043 808.21614,532.77404 808.62319,542.87433 C 806.97572,547.73079 810.54447,550.98429 812.16107,552.72465 C 804.6359,557.98142 795.36097,559.62463 786.09566,559.85952 C 743.56168,562.32007 700.92377,561.52056 658.33851,561.93291 C 622.8548,561.833 587.34316,562.43349 551.87886,561.30999 C 543.45288,561.87307 536.16883,557.51263 529.9482,554.23607 C 523.38462,554.52321 533.59217,552.45162 530.9529,548.39831 C 534.69681,556.34017 533.27428,537.1418 533.68723,533.62867 C 533.42309,529.80782 534.72946,522.42234 534.81304,530.42878 C 534.99003,538.97378 534.61967,547.51681 534.48334,556.06 C 543.78137,560.24633 554.37445,560.25422 564.37824,560.49895 C 569.08367,559.05319 561.63515,559.86539 566.93716,556.05228 C 565.74622,551.43305 564.95762,560.35962 563.62805,554.40036 C 559.40901,553.18034 562.5436,546.17395 565.62805,551.01839 C 568.90732,543.93679 556.04717,546.09764 550.18324,544.99085 C 544.8839,544.75642 534.26498,544.58756 537.30193,536.42785 C 537.22484,545.2275 548.52969,542.71949 554.47689,543.76328 C 557.52728,543.94855 560.57767,544.13382 563.62805,544.31909 C 563.98889,539.57264 561.4548,535.79572 563.39103,531.92714 C 555.4013,529.17821 546.1544,532.46236 538.1748,530.09403 C 542.62513,528.23592 548.45496,529.30544 553.49708,529.01838 C 555.92806,528.4117 560.81929,530.26527 561.62805,528.03636 C 560.88586,525.92481 563.26508,520.79027 560.15579,520.9712 C 555.98994,520.89028 552.99329,520.95063 558.86274,518.66757 C 561.20132,521.66649 563.43142,517.32287 561.37179,513.46643 C 557.76607,512.99496 560.45876,505.23591 561.22709,511.88883 C 561.23414,512.5524 563.12791,505.07913 559.17372,507.22291 C 555.28974,507.71064 549.99007,506.38698 547.17621,508.79807 C 539.56057,510.56522 535.5742,518.25842 534.85803,525.51837 C 533.916,518.59232 536.35991,511.01864 543.18624,507.93737 C 549.00648,504.66432 555.70347,503.64621 562.23999,502.84534 C 563.48458,484.26431 566.86151,465.84846 572.97916,448.2297 C 576.53913,436.07601 582.52888,424.72439 585.62805,412.46232 C 580.14882,404.89198 570.37887,416.37871 570.91337,423.73552 C 568.94566,428.84598 566.07257,435.57409 563.19905,439.01839 C 564.30467,433.84325 571.05023,425.3547 569.41512,422.33026 C 557.60203,439.57529 548.85465,458.87158 541.99241,478.58122 C 541.25476,481.7865 535.55758,494.59085 542.8588,487.76839 C 545.57168,483.7215 547.02928,474.67483 549.28637,473.05421 C 547.5346,480.25022 545.43296,490.50176 536.94465,492.16704 C 530.18693,497.31303 528.51732,506.60988 526.22282,514.36608 C 523.2555,528.58884 522.65385,543.26653 522.88319,557.75795 C 525.00942,566.5909 522.88422,576.1986 525.16893,585.21694 C 527.36798,596.82332 528.71519,609.32473 535.36449,619.3969 C 542.21466,625.79233 552.85754,622.91724 561.37291,623.88008 C 565.85097,623.77349 570.45668,624.05902 574.82513,622.9129 z M 725.62805,618.01837 C 723.11273,613.6652 731.34523,621.21401 725.62805,618.01837 z M 569.37805,612.26886 C 594.84201,612.12298 620.30904,612.0565 645.7716,612.37625 C 617.68175,612.63744 589.57435,612.63744 561.4845,612.37626 C 564.11479,612.29849 566.74698,612.2983 569.37805,612.26886 z M 677.87805,612.30212 C 683.11195,611.56505 686.21846,613.1882 678.70949,612.68585 C 679.02618,613.01854 675.88859,612.33055 677.87805,612.30212 z M 687.35901,612.36243 C 692.98961,611.38512 689.37839,613.96514 687.35901,612.36243 z M 704.87805,612.27118 C 714.35539,612.11379 723.84383,612.02018 733.31653,612.39254 C 722.86644,612.68039 712.38965,612.68037 701.93957,612.39253 C 702.91682,612.30712 703.89839,612.30355 704.87805,612.27118 z M 747.9082,612.2821 C 750.69539,611.78123 762.74837,612.47334 753.84983,612.65676 C 753.42496,612.61784 744.09956,612.79877 747.9082,612.2821 z M 528.74976,580.66504 C 523.90359,570.4108 538.91087,573.30288 544.67702,572.62155 C 626.91699,571.54852 709.17048,571.16589 791.41661,571.55794 C 798.99571,571.63089 806.55814,572.18463 814.12805,572.51837 C 813.3906,574.74187 815.74438,580.04537 812.65504,579.92553 C 719.80487,580.39146 626.94771,580.22864 534.10448,581.49453 C 532.30373,581.54766 530.09914,582.38153 528.74976,580.66504 z M 560.12805,567.91602 C 551.474,566.67757 542.01834,566.95169 534.3,562.45631 C 548.97907,567.37196 564.77851,565.73859 580.02135,566.35482 C 643.43661,566.45234 706.86218,566.86272 770.27094,565.7972 C 781.3654,565.62788 792.55913,564.92838 803.3866,562.73347 C 797.99125,566.16629 788.75753,565.50891 781.81731,566.61511 C 749.87308,568.28188 717.84832,567.79372 685.86765,568.22611 C 643.95893,568.30532 602.02583,568.90845 560.12805,567.91602 z M 806.62805,561.01837 C 813.57527,557.61546 804.23046,564.20167 806.62805,561.01839 L 806.62805,561.01837 z M 558.62805,557.07739 C 559.4155,551.04175 560.58006,562.32432 558.62805,557.07741 L 558.62805,557.07739 z M 530.91406,534.51837 C 531.53836,525.55518 531.45621,544.21556 530.91406,534.51839 L 530.91406,534.51837 z M 538.62805,525.64081 C 542.89771,520.33218 542.26185,524.73218 538.62805,525.64081 z M 533.78595,514.01837 C 534.44912,508.90202 534.44907,519.13484 533.78595,514.01837 z M 807.78595,513.01837 C 808.44912,507.90202 808.44907,518.13484 807.78595,513.01837 z M 534.70697,509.95953 C 535.10432,506.55626 538.87991,503.30393 536.00518,508.37151 C 535.84288,508.10426 534.61662,513.07514 534.70697,509.95953 z M 801.50049,501.2684 C 799.29874,497.24271 806.73815,506.52254 801.50049,501.2684 z M 544.62805,497.64084 C 548.89761,492.33225 548.26195,496.73202 544.62805,497.64084 z M 789.50049,490.2684 C 787.29874,486.24271 794.73815,495.52254 789.50049,490.2684 z M 784.70697,481.60172 C 785.51989,476.33826 785.65088,485.82892 784.70697,481.60172 z M 783.70697,477.60172 C 784.51989,472.33826 784.65088,481.82892 783.70697,477.60172 z M 558.70697,475.60172 C 559.51989,470.33826 559.65088,479.82892 558.70697,475.60172 z M 550.71362,469.5184 C 552.47005,460.93956 553.69584,468.4887 550.71362,469.5184 z M 553.17303,461.7684 C 558.12628,450.51409 551.76691,469.93528 553.17303,461.7684 z M 563.70697,459.60172 C 564.51989,454.33826 564.65088,463.82892 563.70697,459.60172 z M 557.89728,450.48404 C 559.37807,445.45098 561.34219,444.57652 559.00063,450.40136 C 558.15768,454.20146 555.11969,457.71773 557.50611,451.57951 L 557.89727,450.48404 L 557.89728,450.48404 z M 569.71362,443.0184 C 571.85,434.08443 572.30396,442.23112 569.71362,443.0184 z M 574.65869,431.5184 C 576.90133,423.63574 577.35349,431.2027 574.65869,431.5184 z M 766.25159,430.47974 C 764.11232,424.0594 769.45512,434.4406 766.25159,430.47974 z M 744.35693,618.0694 C 743.58293,614.72999 738.03149,620.67592 743.62805,619.04977 C 743.94273,621.66657 744.73912,618.46256 744.35693,618.0694 z M 768.82129,618.24945 C 767.65791,615.34385 762.75027,615.79712 767.02947,619.04493 C 765.66655,620.76176 770.5127,618.71337 768.82129,618.24945 z M 754.2746,559.74377 C 759.99011,559.67735 765.70563,559.61092 771.42114,559.54449 C 774.49661,538.02444 778.66815,516.43525 778.27884,494.64268 C 776.21472,492.98837 777.8813,484.77756 771.02999,486.29779 C 732.34437,484.41918 693.5718,484.22294 654.84332,484.59129 C 625.60271,484.96398 596.35187,485.73651 567.14527,486.91537 C 563.27733,484.38225 564.80921,495.29723 563.67321,499.38921 C 563.67981,502.7672 563.41188,505.81449 559.2851,504.2135 C 550.47531,505.91198 564.76891,504.36971 563.60993,507.97649 C 564.89831,525.70533 567.68827,543.35042 571.77155,560.64545 C 632.60597,560.3666 693.44117,560.19576 754.2746,559.74377 z M 716.89886,559.41425 C 720.9051,558.48766 718.88798,561.2459 716.89886,559.41425 z M 621.39594,536.29364 C 624.85676,535.61238 631.14151,536.83939 624.12805,536.70852 C 623.95481,536.74588 618.6409,536.65079 621.39594,536.29364 z M 681.81757,536.27124 C 692.26473,536.11008 702.72132,536.03045 713.16467,536.38978 C 701.68831,536.68114 690.18859,536.67019 678.71155,536.39092 C 679.74469,536.3043 680.78212,536.30379 681.81757,536.27124 z M 616.25159,534.47974 C 614.11231,528.0594 619.45512,538.44058 616.25159,534.47974 z M 719.87805,532.93829 C 723.04806,527.64855 721.07158,520.56666 721.62805,514.51367 C 721.62805,510.34858 721.62805,506.18349 721.62805,502.0184 C 688.46193,502.24665 655.27519,501.75209 622.12805,502.91812 C 616.77361,501.30888 620.81065,515.56058 618.86995,509.1357 C 617.68844,507.05304 618.81997,501.93793 615.33904,502.86975 C 598.48245,503.33304 581.48023,503.46795 564.75274,504.59521 C 570.56129,501.62584 579.52101,503.11029 586.54394,502.33975 C 646.07493,501.25423 705.64509,500.38733 765.17331,502.01086 C 768.48246,501.5549 783.78044,503.84727 773.18645,503.42425 C 756.50906,502.75622 739.81479,502.77335 723.12805,502.5184 C 722.79982,512.52543 723.7391,522.67504 722.05439,532.56029 C 722.40555,534.40011 716.03374,534.51949 719.87805,532.93829 z M 620.01758,531.59113 C 618.69166,523.8956 622.07358,529.29696 620.60173,532.81825 L 620.01758,531.59112 L 620.01758,531.59113 z M 618.69836,518.26837 C 618.65373,510.19529 622.36552,525.30191 618.94245,520.91683 L 618.74995,519.72445 L 618.69834,518.26839 L 618.69836,518.26837 z M 610.70697,518.60175 C 611.51988,513.33826 611.65089,522.82888 610.70697,518.60175 z M 730.70697,517.60175 C 731.51988,512.33826 731.65089,521.82888 730.70697,517.60175 z M 609.823,512.51837 C 610.34251,506.0252 610.56178,518.27373 609.823,512.51837 z M 731.91406,509.5184 C 732.53835,500.55513 732.45622,519.21557 731.91406,509.51839 L 731.91406,509.5184 z M 564.78595,511.0184 C 565.44911,505.90198 565.44908,516.13481 564.78595,511.0184 z M 669.37805,497.93829 C 663.05182,490.76865 678.70591,502.37032 669.37805,497.93829 L 669.37805,497.93829 z M 676.34711,493.70758 C 675.66937,487.44896 672.54114,489.48846 673.27699,494.78161 C 661.14625,492.71982 675.85815,482.05377 677.40727,492.00079 C 678.89052,494.02931 675.73108,498.4287 676.34711,493.70758 z M 671.15448,489.21152 C 667.51428,489.48146 668.53844,492.92344 671.15448,489.21152 z M 803.38409,555.96088 C 811.31484,551.05269 806.1858,539.27448 807.00034,531.40733 C 806.17931,523.35633 806.40841,511.40549 796.63933,508.87571 C 790.48367,505.22381 788.33826,508.58126 790.45647,514.59675 C 788.64661,519.38428 798.27817,521.60597 790.00836,520.38448 C 787.21924,520.8793 782.21005,518.55199 780.77276,520.73923 C 777.50823,528.47304 783.98508,529.64235 790.66985,528.3707 C 796.32188,528.41149 805.87405,528.77302 802.99768,523.41437 C 812.13778,534.66453 786.68118,526.04965 790.87805,534.0337 C 790.13299,536.75428 782.7489,535.82494 779.12805,536.0224 C 779.71358,538.16798 776.97399,543.55506 780.07748,543.24586 C 787.7771,542.80945 795.51886,542.77489 803.17301,541.80676 C 803.20497,538.68552 805.60305,531.27722 805.43842,538.76007 C 805.42684,547.56842 787.19865,541.12651 788.35994,548.72085 C 786.26178,549.31009 787.79868,552.6733 787.62805,553.92695 C 789.54231,554.28781 782.67112,557.56241 788.1215,557.9397 C 793.24364,557.80242 798.43115,557.32378 803.38409,555.96088 z M 791.12805,510.0184 C 791.68764,506.63751 793.70913,513.19735 791.12805,510.0184 z M 553.35901,506.32541 C 548.70889,505.52053 550.43684,507.75999 553.80918,506.50732 L 553.35902,506.3254 L 553.35901,506.32541 z M 520.42725,495.40857 C 526.11428,493.02584 529.81437,479.5602 524.05847,476.46781 C 515.53618,476.63423 506.64638,476.86964 498.5167,479.62935 C 495.29321,484.98545 492.5946,497.77784 503.30087,495.71464 C 508.99906,495.88903 514.7555,496.09403 520.42725,495.40857 z M 533.03833,492.7684 C 538.57691,488.69594 531.05301,488.79017 529.71458,484.94346 C 529.36386,476.01902 526.38363,491.11443 525.37606,493.24182 C 522.22194,498.5835 532.33678,495.5247 533.03833,492.7684 z M 813.12866,492.16489 C 813.46432,485.56206 802.32905,487.42556 809.32708,492.50783 C 810.64659,494.94429 814.76428,497.00771 813.12866,492.16489 z M 833.08099,493.85788 C 839.20116,488.17488 835.63288,474.56433 825.56364,475.57533 C 817.56902,471.21084 809.33774,476.85153 812.8615,485.85909 C 812.76045,496.3702 824.62932,495.55971 831.91334,494.23656 L 833.081,493.85787 L 833.08099,493.85788 z M 802.61725,488.2684 C 798.68772,473.0294 792.40867,458.35852 785.30721,444.32282 C 780.73616,436.23357 776.55379,427.78079 770.92476,420.38835 C 778.12194,437.2624 786.65414,453.60351 792.65535,470.9958 C 795.69515,475.30651 796.49079,489.74953 802.61725,488.2684 z M 614.20117,483.35986 C 665.58762,482.72604 716.99624,482.35711 768.37805,483.36271 C 779.19335,484.45128 769.75283,469.22954 769.52107,463.3994 C 765.95362,451.55997 762.0425,439.77268 757.54345,428.27493 C 749.65702,425.25481 740.62814,426.42291 732.26848,425.51246 C 683.50915,423.48569 634.60778,423.79679 585.92664,427.29415 C 580.2988,429.92945 580.95696,445.32572 576.50535,444.51839 C 576.23203,446.5314 574.91643,457.64549 572.25372,462.8772 C 571.9727,469.22768 564.99136,481.28637 570.47223,484.5484 C 585.03765,483.8823 599.62454,483.69998 614.20117,483.35986 z M 668.93646,479.37979 C 671.90904,472.53981 683.45616,479.66561 689.8787,477.79572 C 706.3594,477.53119 722.93996,477.74362 739.32146,475.86299 C 729.17928,474.66504 718.50698,474.93946 708.12805,474.44662 C 720.03366,474.44092 731.97073,473.75986 743.85262,474.57629 C 742.53083,482.30576 728.71178,477.24855 722.57982,479.14919 C 705.31778,479.4262 688.04486,480.13934 670.79821,480.4419 L 669.52563,480.06176 L 668.93649,479.37978 L 668.93646,479.37979 z M 671.81555,478.33527 C 667.36848,477.601 672.38056,480.15823 671.81555,478.33528 L 671.81555,478.33527 z M 676.81555,478.33527 C 672.36848,477.601 677.38056,480.15823 676.81555,478.33528 L 676.81555,478.33527 z M 683.62805,475.79257 C 687.54026,473.52861 698.57632,476.40924 688.04671,476.52569 C 686.67057,476.31788 684.76645,476.80137 683.62805,475.79257 z M 566.76208,478.36478 C 563.34921,475.90926 568.13648,486.23299 566.76208,478.36477 L 566.76208,478.36478 z M 568.29034,472.7684 C 566.6492,473.58674 569.17451,477.89382 568.29034,472.7684 z M 774.23224,473.28922 C 772.1789,473.9255 775.66527,478.05644 774.23224,473.28922 z M 571.49628,459.0184 C 569.10206,461.50557 567.86198,475.85329 570.4455,464.88294 C 570.866,462.94571 571.36585,461.00268 571.49628,459.0184 z M 773.23224,468.28922 C 771.1789,468.9255 774.66527,473.05644 773.23224,468.28922 z M 772.23224,463.28922 C 770.1789,463.9255 773.66527,468.05644 772.23224,463.28922 z M 573.62805,455.45938 C 571.55558,451.76999 572.70316,460.04049 573.62805,455.45937 L 573.62805,455.45938 z M 768.23224,451.28922 C 766.1789,451.9255 769.66527,456.05644 768.23224,451.28922 z M 574.23224,450.28922 C 572.1789,450.9255 575.66527,455.05644 574.23224,450.28922 z M 580.54248,434.5184 C 577.36491,436.15501 579.55266,441.38076 580.54245,434.51839 L 580.54248,434.5184 z M 583.47589,425.0184 C 581.11413,425.91305 579.82306,437.30718 582.65139,428.54104 C 582.99384,427.38824 583.3977,426.22919 583.47589,425.0184 z M 607.62805,424.00821 C 619.25469,422.72225 631.04126,423.6295 642.62805,422.37863 C 635.54197,415.05501 653.20838,417.22258 657.82433,416.68787 C 671.43224,416.98326 685.22953,415.78006 698.70658,417.8158 C 703.32473,419.5448 697.01753,422.98685 703.96004,422.39256 C 721.45726,423.61334 739.03757,423.61794 756.52206,424.89316 C 758.91862,420.29853 748.25354,422.2783 744.46945,421.69741 C 738.55069,421.65014 744.14363,421.49028 747.01444,421.35704 C 751.1815,421.48004 761.19711,420.61551 752.6823,416.99046 C 756.90398,417.5897 755.33583,406.05522 755.08463,408.96836 C 754.62805,411.8248 753.68728,417.43225 753.58632,410.73112 C 747.09745,405.6815 736.65498,407.68272 728.49688,406.21593 C 683.069,403.29392 637.31198,402.97959 592.08599,408.76725 C 589.07987,409.06938 585.09507,408.54471 586.77028,412.80168 C 585.61537,418.74485 594.76726,416.13132 587.62805,419.14696 C 585.18853,418.53732 585.26357,423.73518 585.36125,425.08332 C 592.63472,426.34875 600.25748,424.18417 607.62805,424.00821 z M 594.87805,421.28992 C 598.53131,420.66851 607.51052,421.76122 598.62805,421.68218 C 598.48203,421.74829 591.51088,421.58075 594.87805,421.28992 z M 615.38971,420.31113 C 623.29214,419.58814 616.3705,421.76926 615.38971,420.31113 L 615.38971,420.31113 z M 624.87805,420.32907 C 631.57464,419.58536 627.97098,421.63194 624.87805,420.32907 z M 720.87805,420.32907 C 727.57464,419.58536 723.97098,421.63194 720.87805,420.32907 z M 730.87805,420.30215 C 736.11195,419.56504 739.21846,421.18819 731.70949,420.68586 C 732.02617,421.01861 728.88859,420.33051 730.87805,420.30215 z M 600.37805,416.29498 C 603.83848,415.62489 611.20575,416.80035 603.62805,416.69832 C 603.59378,416.68177 597.3967,416.72014 600.37805,416.29498 z M 740.35577,416.29666 C 743.82716,415.63667 752.25306,416.7683 744.12805,416.69025 C 744.02171,416.70769 737.56511,416.6755 740.35577,416.29666 z M 619.87805,415.27682 C 624.07058,415.12311 632.56247,414.92411 634.17961,415.52391 C 631.65528,415.58078 616.61486,415.86954 619.87805,415.27682 z M 678.62805,415.0184 C 668.79472,414.83656 658.96139,414.65471 649.12805,414.47287 C 678.46501,414.36228 707.82075,414.10161 737.12805,415.65729 C 717.62621,415.64692 698.12632,415.38075 678.62805,415.0184 z M 642.35901,414.36246 C 647.98956,413.38512 644.37845,415.9651 642.35901,414.36246 z M 694.12805,420.06479 C 697.96137,419.67899 700.67247,419.29345 695.23257,418.90975 C 678.95265,417.05855 662.41669,417.4631 646.13517,419.07986 C 638.6015,421.11838 653.35373,420.70742 655.50604,420.85992 C 668.37602,420.92351 681.29029,421.0689 694.12805,420.06479 z"
         id="path2108"
         sodipodi:nodetypes="cccccccccccccccccccccccccccccccccccccccccccccccccccccccccccccccccccccccccccccccccccccccccccccccccccccccccccccccccccccccccccccccccccccccccccccccccccccccccccccccccccccccccccccccccccccccccccccccccccccccccccccccccccccccccccccccccccccccccccccccccccccccccccccccccccccccccccccccccccccccccccccccccccccccccccccccccccccccccccccccccccccccccccccccccccccccccccccccccccccccccccccccccccccccccccccccccccccccccccccccccccccccccccccccccccccccc" />
      <path
         style="fill:#333333;fill-opacity:1"
         d="M 527.12805,673.00647 C 524.74969,671.52242 519.76816,669.32669 525.37805,670.02655 C 531.9514,670.00938 523.94242,661.27547 526.20461,656.81252 C 525.13756,629.03633 525.65977,601.16765 522.73719,573.49722 C 522.07039,552.20609 519.80181,530.36628 525.2512,509.50289 C 528.4235,502.86009 529.95123,495.0972 519.85131,497.58812 C 511.56823,496.42174 501.16285,499.76703 494.4235,494.57676 C 492.5858,487.97729 494.87705,476.1475 503.80485,477.15607 C 505.59583,477.42514 493.60465,479.97048 495.87539,485.76463 C 490.62377,497.87022 506.22149,496.69321 513.62917,496.13079 C 520.35627,495.10495 524.24248,494.94907 530.04873,495.89795 C 537.47457,489.7476 538.19486,478.93026 542.07975,470.59694 C 550.04371,449.42324 560.1596,428.59267 574.87229,411.25435 C 581.53216,406.15683 591.02266,407.75071 598.99036,406.18727 C 645.20183,401.23641 691.83292,401.5763 738.13689,404.99627 C 742.41832,405.75081 752.90089,405.56303 753.79944,408.08364 C 736.43574,406.71551 719.08262,404.75 701.63501,404.47115 C 663.48241,403.40605 625.16351,403.98901 587.28068,409.01839 C 586.95463,411.829 586.85097,422.91569 584.56839,419.12986 C 589.09326,411.87824 581.99725,406.72137 575.7554,412.08919 C 571.49465,418.3968 567.26354,425.31734 562.77888,432.05274 C 552.27839,449.48655 544.56372,468.57385 538.9401,488.09831 C 538.45287,491.07993 543.28579,489.9483 537.70071,491.58933 C 529.19736,497.57899 527.34391,508.89213 525.06363,518.36852 C 522.4017,536.20353 523.28063,554.37193 523.62582,572.34876 C 524.27492,587.86438 527.21193,603.61613 533.9232,617.69783 C 538.04853,625.74569 548.78841,622.87079 556.20463,624.3114 C 564.60857,625.79698 572.66227,623.40926 580.90038,622.5834 C 629.0075,621.84546 677.13604,623.16754 725.2405,621.76747 C 738.09487,621.81977 750.95498,620.20007 763.78928,620.88345 C 776.28593,624.2422 789.59031,622.98116 802.1758,620.69448 C 812.20977,618.24901 813.52829,606.69613 815.57367,598.22144 C 818.9831,583.58453 819.13803,568.48967 820.42733,553.62312 C 819.63826,535.10233 820.15331,515.60472 811.57954,498.61179 C 812.03167,490.31157 826.34323,498.40794 832.12805,494.84208 C 836.08128,494.61678 836.69588,492.03083 836.07192,488.56914 C 838.17413,479.5673 830.97173,475.10413 822.85148,474.76941 C 819.46083,472.08673 810.80326,476.4692 812.24484,475.52143 C 819.09697,470.85478 830.67,473.30717 836.34726,479.01839 C 839.30084,487.21112 838.87447,499.8927 826.72998,497.0368 C 821.34733,497.52144 809.46005,494.68651 815.52789,503.55521 C 823.03748,522.93421 820.79551,544.14866 820.84113,564.47685 C 820.28264,579.74483 818.35033,594.93187 818.70679,610.24343 C 818.34032,628.20401 819.19144,646.21292 817.90846,664.13946 C 812.79111,670.50526 819.95711,670.34164 824.79689,670.10827 C 823.64364,671.10808 819.76559,672.75379 817.572,674.00026 C 813.98864,675.63272 809.69375,674.35546 805.81702,674.78824 C 714.58736,675.18486 623.35771,675.58152 532.12805,675.97821 C 530.46139,674.98763 528.79472,673.99705 527.12805,673.00647 z M 534.89075,666.91504 C 534.4503,663.03069 540.06663,661.73664 537.52129,665.45241 C 541.15965,664.09152 541.06014,670.21505 542.13294,665.4766 C 544.93073,665.76947 550.81406,664.44948 546.0958,664.07057 C 549.84431,660.66391 553.03821,670.37691 552.89347,662.25707 C 553.24142,652.9404 553.83776,678.7 555.2879,665.78649 C 555.67036,652.69959 555.21504,639.60727 555.12805,626.51837 C 548.16579,626.06527 541.06826,625.23848 534.53898,622.77342 C 532.87488,633.92978 533.88749,645.45173 533.71203,656.75332 C 533.61147,658.88372 534.16182,673.84904 534.89075,666.91504 z M 783.59625,669.26837 C 778.65174,660.91958 781.4314,650.60853 780.58722,641.35443 C 780.76718,634.49765 781.56916,625.20709 771.76785,628.36478 C 701.97717,628.20099 632.18869,628.96469 562.39966,629.34344 C 562.68261,640.21573 563.87168,651.10667 563.22797,661.97025 C 563.95633,664.81846 556.32296,671.30694 562.60619,670.01837 C 635.50963,669.88907 708.41875,670.4023 781.31703,669.41905 L 783.01852,669.34479 L 783.59625,669.26839 L 783.59625,669.26837 z M 790.44464,658.33575 C 790.93352,663.57062 798.18136,663.09931 801.51344,660.79455 C 806.64575,659.47086 810.6122,658.42279 809.61274,665.76839 C 811.11541,675.73744 811.77028,659.15408 811.5618,655.67464 C 811.59809,643.79267 811.8304,631.8808 811.18521,620.01839 C 804.53088,624.69436 794.94477,624.06152 788.27414,626.07758 C 787.20437,640.08782 787.42909,654.2465 788.27251,668.27251 C 789.74067,673.82432 789.55337,654.68791 790.44464,658.33575 z M 795.78595,660.01837 C 796.44912,654.90202 796.44907,665.13484 795.78595,660.01837 z M 805.12805,664.01837 C 800.32239,660.53649 805.87585,666.9322 805.12805,664.01839 L 805.12805,664.01837 z M 527.97528,579.48096 C 526.22023,574.50685 529.01873,572.45608 533.52762,573.39117 C 612.80211,571.57197 692.1081,571.37648 771.40023,571.56894 C 785.6469,571.66814 799.88581,572.18629 814.12805,572.51837 C 816.74902,579.76248 810.16386,580.56544 804.34922,579.61997 C 717.49635,580.2009 630.63832,580.75063 543.78396,580.34775 C 538.52685,580.11012 533.14528,580.53121 527.97528,579.48096 z M 576.12805,568.01837 C 581.45273,564.139 579.66071,572.19213 576.12805,568.01837 z M 559.37805,567.35614 C 564.50357,566.47193 560.19628,568.99717 559.37805,567.35614 z M 722.87805,567.2738 C 728.39106,567.1252 739.17351,566.94335 741.41711,567.50922 C 735.19755,567.57861 725.56272,567.8262 721.47754,567.34077 L 722.87805,567.27382 L 722.87805,567.2738 z M 549.35901,566.36243 C 554.98961,565.38512 551.37839,567.96514 549.35901,566.36243 z M 766.34155,566.28241 C 770.46629,565.72351 784.79874,566.60499 773.21857,566.64203 C 771.99632,566.59091 763.19968,566.7847 766.34155,566.28241 z M 543.37805,565.35614 C 548.50357,564.47193 544.19628,566.99717 543.37805,565.35614 z M 786.38971,565.31116 C 794.29212,564.58812 787.37052,566.76925 786.38971,565.31113 L 786.38971,565.31116 z M 794.37805,564.35614 C 799.50357,563.47193 795.19628,565.99717 794.37805,564.35614 z M 564.62805,561.11823 C 574.36859,559.72834 564.69272,546.77376 565.52706,540.41683 C 566.39079,533.596 566.38684,536.90264 566.80969,541.85232 C 569.44952,547.9056 569.92657,558.60443 573.15553,561.60829 C 572.61727,561.78371 557.49273,562.027 564.62805,561.11823 z M 686.89886,561.41425 C 690.9051,560.48766 688.88798,563.2459 686.89886,561.41425 z M 548.37805,560.35614 C 553.50357,559.47193 549.19628,561.99717 548.37805,560.35614 z M 769.29767,560.32318 C 774.85313,553.34582 773.47135,541.89847 775.97997,533.12924 C 777.72337,520.86589 777.53617,508.39475 779.33907,496.15821 C 777.01481,501.35803 785.46648,502.37809 779.67059,503.76475 C 780.58465,506.40279 792.0381,505.46096 785.33879,507.26202 C 780.93615,509.10035 786.82524,514.35075 782.78459,518.27813 C 791.96764,521.91274 777.56832,517.11251 779.62805,522.4734 C 780.29147,524.659 777.89873,529.84231 781.59171,529.05629 C 788.10382,529.18205 794.61594,529.30777 801.12805,529.43347 C 795.08609,529.84641 788.89822,529.32904 782.99783,530.8337 C 782.41519,533.72223 783.74874,534.96215 779.53692,536.25963 C 773.04294,547.87195 789.77154,542.68374 794.22712,543.59018 C 787.87521,545.03808 778.24925,543.98196 780.58648,553.09607 C 777.80042,560.22499 786.67694,559.14912 791.12805,559.31244 C 783.68126,560.26646 776.13035,561.17228 768.63696,560.55487 L 769.29765,560.32319 L 769.29767,560.32318 z M 541.89886,559.41425 C 545.9051,558.48766 543.88798,561.2459 541.89886,559.41425 z M 533.43567,554.76837 C 532.9366,549.79969 535.04954,544.8947 534.52082,552.86131 C 534.52719,553.69834 534.51521,558.08175 533.43567,554.76837 z M 808.0166,541.51837 C 807.88454,538.02289 808.27209,529.34386 808.47712,537.67331 C 808.79441,541.87731 808.06827,554.88004 808.02439,543.9912 L 808.01873,542.80744 L 808.01659,541.51839 L 808.0166,541.51837 z M 809.62805,552.57739 C 811.99871,548.76851 812.4023,554.72207 809.62805,552.57739 z M 563.12805,545.01837 C 563.6877,541.63753 565.70909,548.1974 563.12805,545.01837 z M 543.37805,543.35614 C 548.50357,542.47193 544.19628,544.99717 543.37805,543.35614 z M 800.37805,542.35614 C 805.50357,541.47193 801.19628,543.99717 800.37805,542.35614 z M 563.823,538.51837 C 564.34252,532.0252 564.56178,544.27373 563.823,538.51837 z M 533.86005,532.01837 C 534.45903,524.87553 534.45901,539.16132 533.86005,532.01837 z M 564.88025,531.51837 C 564.96536,524.37977 566.06538,535.71458 564.92238,532.89306 L 564.88023,531.51839 L 564.88025,531.51837 z M 560.62805,530.07031 C 565.29477,527.95418 561.60327,514.58159 564.09405,515.86018 C 564.37053,519.56828 566.11398,531.15171 560.62805,530.07031 z M 806.90039,523.01837 C 807.49571,514.61203 807.49566,531.42479 806.90041,523.01839 L 806.90039,523.01837 z M 534.88025,521.51837 C 534.96536,514.37977 536.06538,525.71458 534.92238,522.89306 L 534.88023,521.51839 L 534.88025,521.51837 z M 535.62805,516.19366 C 535.80994,511.95528 546.89641,505.80578 545.62805,507.74925 C 541.97492,510.12492 539.37252,514.24025 535.62805,516.19366 z M 802.62433,511.51443 C 798.57612,510.04516 795.80975,504.8394 801.61473,508.86684 C 804.61194,510.29418 807.24321,516.12932 802.62435,511.51445 L 802.62433,511.51443 z M 562.62805,508.09171 C 556.46031,504.65383 566.3662,506.42795 562.77492,508.74618 L 562.62805,508.09171 L 562.62805,508.09171 z M 794.62805,507.07742 C 797.10494,503.33611 797.03646,509.42641 794.62805,507.07742 z M 560.31757,503.32059 C 563.90616,502.32022 563.27875,495.01787 563.47965,502.51467 C 564.45576,504.83251 555.99941,503.74713 560.31757,503.32059 z M 567.38971,503.31113 C 575.29214,502.58814 568.3705,504.76926 567.38971,503.31113 L 567.38971,503.31113 z M 785.89886,503.41422 C 789.90515,502.48768 787.88793,505.24593 785.89886,503.41422 z M 589.87805,502.27509 C 594.82603,502.1204 604.16678,501.94685 606.29836,502.51578 C 603.39795,502.57093 586.14115,502.85289 589.87805,502.27509 z M 675.62805,502.00339 C 660.12805,501.83172 644.62805,501.66004 629.12805,501.48837 C 662.62738,501.43286 696.1342,500.89329 729.62805,501.41335 C 718.3981,503.13003 706.70209,501.92868 695.28847,502.19833 C 688.7349,502.14408 682.18143,502.07576 675.62805,502.00339 z M 758.83887,502.28058 C 762.38871,501.78199 778.50582,502.4778 767.41023,502.62864 C 766.1508,502.56547 755.06568,502.82104 758.83887,502.28058 z M 807.33136,492.42044 C 800.09705,488.97116 801.62324,479.3791 797.90022,472.89309 C 791.44432,454.68958 782.99758,437.08121 771.8588,421.26804 C 768.43963,415.45934 765.02835,408.46126 756.87879,408.7974 C 756.70082,411.32843 755.96228,423.26609 755.40761,413.78839 C 754.10041,401.72281 769.3569,409.76888 771.35529,416.46867 C 785.5747,436.92728 796.85765,459.5273 804.3332,483.30094 C 804.72688,484.93517 812.49356,498.48967 807.33136,492.42044 z M 670.72498,492.63516 C 669.15811,487.40415 677.70534,492.69416 671.87054,493.69949 L 670.72497,492.63517 L 670.72498,492.63516 z M 563.90039,489.0184 C 564.4957,480.612 564.49567,497.42476 563.90041,489.01839 L 563.90039,489.0184 z M 813.08691,491.95187 C 812.03009,487.36335 815.98847,495.36266 813.08691,491.95187 z M 777.86005,489.0184 C 778.45902,481.8755 778.45902,496.16125 777.86005,489.0184 z M 796.61127,485.4743 C 795.22343,482.91522 793.66282,473.68385 796.3315,481.52408 C 797.42234,483.58768 798.92934,491.0171 796.61128,485.47429 L 796.61127,485.4743 z M 809.62805,486.93271 C 807.75257,486.54089 812.14708,481.98233 810.82898,478.5184 C 810.88882,480.95946 815.09865,489.22942 809.62805,486.93271 z M 530.29474,486.35172 C 530.73446,477.38027 523.12147,473.90196 515.00601,476.32675 C 511.42688,476.85434 505.89364,475.82763 512.79613,475.37115 C 521.50854,472.99619 533.21773,476.24963 530.90438,486.88153 L 530.29472,486.35172 L 530.29474,486.35172 z M 576.62805,484.86917 C 632.75106,483.38674 688.9111,483.67977 745.05148,483.57427 C 755.64004,483.97486 766.5149,482.95034 776.92728,484.68099 C 770.12735,486.24341 761.87043,484.52983 754.4863,484.97482 C 694.63919,484.56671 634.78141,484.40464 574.94092,485.44306 C 570.68738,485.28965 576.01231,484.97002 576.62805,484.86917 z M 564.823,480.5184 C 565.34251,474.02516 565.56178,486.27373 564.823,480.5184 z M 669.13739,479.03351 C 667.70007,476.08271 673.23188,480.06808 673.5491,477.76839 C 679.47203,478.43065 687.28265,477.78825 695.19606,478.0344 C 710.38202,477.45523 725.60409,477.50379 740.77156,476.73022 C 745.79354,471.84699 743.34835,480.64072 738.21106,478.33941 C 715.8359,479.15359 693.41386,480.17451 671.02825,479.53589 L 669.69565,479.31755 L 669.13739,479.0335 L 669.13739,479.03351 z M 565.70697,474.60172 C 566.51989,469.33826 566.65088,478.82892 565.70697,474.60172 z M 772.78595,474.0184 C 773.4491,468.90199 773.44909,479.13477 772.78595,474.0184 z M 771.78595,469.0184 C 772.4491,463.90199 772.44909,474.13477 771.78595,469.0184 z M 569.70697,468.60172 C 570.51989,463.33826 570.65088,472.82892 569.70697,468.60172 z M 790.25159,468.47974 C 787.94409,460.41629 793.33539,472.43877 790.25159,468.47973 L 790.25159,468.47974 z M 772.70697,464.60172 C 773.51989,459.33826 773.65088,468.82892 772.70697,464.60172 z M 568.70697,463.60172 C 569.51989,458.33826 569.65088,467.82892 568.70697,463.60172 z M 569.79803,459.5184 C 569.76099,454.85247 572.72002,453.35326 570.62805,459.01839 L 569.98053,460.62496 L 569.79802,459.51839 L 569.79803,459.5184 z M 766.70697,452.60172 C 767.51989,447.33826 767.65088,456.82892 766.70697,452.60172 z M 766.70697,445.60172 C 767.51989,440.33826 767.65088,449.82892 766.70697,445.60172 z M 575.71362,441.0184 C 577.85,432.08443 578.30396,440.23112 575.71362,441.0184 z M 777.79572,438.06943 C 775.83287,429.51805 781.68329,445.72596 777.79569,438.06944 L 777.79572,438.06943 z M 760.74365,435.9202 C 758.7595,430.8236 760.50826,430.95644 761.72844,435.98094 C 763.32112,440.95233 761.39993,438.12522 760.74365,435.9202 z M 578.70984,434.0184 C 578.85191,431.2612 584.48381,419.95954 581.39187,428.76926 C 580.53527,430.39017 580.0803,432.85079 578.70984,434.0184 z M 773.08691,428.95187 C 772.03009,424.36335 775.98847,432.36266 773.08691,428.95187 z M 583.71136,426.65372 C 587.4033,425.33421 601.38926,425.46065 590.44335,426.78908 C 588.27076,426.80168 585.67312,427.4662 583.71136,426.65372 z M 745.12805,426.0184 C 743.38172,425.81953 736.60114,425.46706 738.10991,425.36749 C 744.77104,425.4807 751.6176,424.45316 758.12805,426.01839 C 755.61386,427.84996 748.94173,425.87848 745.12805,426.0184 z M 600.37805,425.31265 C 604.66309,424.54711 607.20821,426.23278 601.05832,425.71183 C 601.23877,426.03148 598.78229,425.35115 600.37805,425.31265 z M 614.87805,424.32907 C 621.57464,423.58536 617.97098,425.63194 614.87805,424.32907 z M 626.62805,424.0184 C 628.92561,422.07723 640.89688,423.35975 631.84927,424.67119 C 630.36105,424.67527 627.53244,425.60357 626.62805,424.0184 z M 711.12805,423.96744 C 712.29962,422.36675 725.3365,423.64682 730.62805,424.00028 C 739.47545,425.31632 718.83464,424.57034 715.24573,424.34863 C 713.87099,424.254 712.49164,424.17666 711.12805,423.96744 z M 651.71667,423.00015 C 646.86997,422.91866 642.87904,421.84436 650.15587,421.66382 C 663.61567,421.96902 677.15898,421.48298 690.56436,422.58031 C 683.73546,424.75199 673.69328,423.47301 665.69543,423.79775 C 661.03521,423.65645 656.33484,423.71096 651.71667,423.00015 z M 703.89886,423.41422 C 707.90515,422.48768 705.88793,425.24593 703.89886,423.41422 z M 694.13214,422.01172 C 698.68041,418.40063 699.56078,425.53726 694.13214,422.01172 z M 621.87805,415.32907 C 628.57464,414.58536 624.97098,416.63194 621.87805,415.32907 z M 628.87805,415.32907 C 635.57464,414.58536 631.97098,416.63194 628.87805,415.32907 z M 713.89886,415.41422 C 717.90515,414.48768 715.88793,417.24593 713.89886,415.41422 z M 722.35577,415.29666 C 725.82716,414.63667 734.25306,415.7683 726.12805,415.69025 C 726.02171,415.70769 719.56511,415.6755 722.35577,415.29666 z"
         id="path2106"
         sodipodi:nodetypes="cccccccccccccccccccccccccccccccccccccccccccccccccccccccccccccccccccccccccccccccccccccccccccccccccccccccccccccccccccccccccccccccccccccccccccccccccccccccccccccccccccccccccccccccccccccccccccccccccccccccccccccccccccccccccccccccccccccccccccccccccccccccccccccccccccccccccccccccccccccccccccccccccccccccccccccccccccccccccccccccccccccccc" />
    </g>
  </g>
</svg>
